<svg width="29" height="29" viewBox="0 0 29 29" fill="none" xmlns="http://www.w3.org/2000/svg">
<path d="M3.33341 19.3333V3.33329H0.666748V0.666626H4.66675C5.02037 0.666626 5.35951 0.807102 5.60956 1.05715C5.8596 1.3072 6.00008 1.64634 6.00008 1.99996V18H22.5841L25.2507 7.33329H8.66675V4.66663H26.9601C27.1628 4.66663 27.3628 4.71284 27.5449 4.80174C27.727 4.89064 27.8865 5.01989 28.0112 5.17968C28.1359 5.33946 28.2225 5.52556 28.2645 5.72384C28.3064 5.92212 28.3027 6.12736 28.2534 6.32396L24.9201 19.6573C24.8479 19.9456 24.6813 20.2015 24.447 20.3844C24.2127 20.5673 23.924 20.6666 23.6267 20.6666H4.66675C4.31313 20.6666 3.97399 20.5262 3.72394 20.2761C3.47389 20.0261 3.33341 19.6869 3.33341 19.3333ZM6.00008 28.6666C5.29284 28.6666 4.61456 28.3857 4.11446 27.8856C3.61437 27.3855 3.33341 26.7072 3.33341 26C3.33341 25.2927 3.61437 24.6144 4.11446 24.1143C4.61456 23.6142 5.29284 23.3333 6.00008 23.3333C6.70732 23.3333 7.3856 23.6142 7.8857 24.1143C8.3858 24.6144 8.66675 25.2927 8.66675 26C8.66675 26.7072 8.3858 27.3855 7.8857 27.8856C7.3856 28.3857 6.70732 28.6666 6.00008 28.6666ZM22.0001 28.6666C21.2928 28.6666 20.6146 28.3857 20.1145 27.8856C19.6144 27.3855 19.3334 26.7072 19.3334 26C19.3334 25.2927 19.6144 24.6144 20.1145 24.1143C20.6146 23.6142 21.2928 23.3333 22.0001 23.3333C22.7073 23.3333 23.3856 23.6142 23.8857 24.1143C24.3858 24.6144 24.6667 25.2927 24.6667 26C24.6667 26.7072 24.3858 27.3855 23.8857 27.8856C23.3856 28.3857 22.7073 28.6666 22.0001 28.6666Z" fill="#2B2A29"/>
</svg>
