<svg width="32" height="32" viewBox="0 0 32 32" fill="none" xmlns="http://www.w3.org/2000/svg">
<path d="M16 24.1186C16.6904 24.1186 17.25 23.5584 17.25 22.8674C17.25 22.1764 16.6904 21.6162 16 21.6162C15.3096 21.6162 14.75 22.1764 14.75 22.8674C14.75 23.5584 15.3096 24.1186 16 24.1186Z" fill="#005BFF"/>
<path d="M31.0625 6.28881H23.2401L19.1702 2.54831C18.3032 1.75137 17.1772 1.3125 16 1.3125C14.8228 1.3125 13.6968 1.75137 12.8297 2.54837L8.75988 6.28888H0.9375C0.41975 6.28888 0 6.709 0 7.22731C0 9.86531 0 27.8421 0 29.7491C0 30.2674 0.41975 30.6875 0.9375 30.6875H31.0625C31.5802 30.6875 32 30.2674 32 29.7491C32 27.8411 32 9.86525 32 7.22725C32 6.709 31.5802 6.28881 31.0625 6.28881ZM14.0977 3.93088C15.1823 2.93413 16.8177 2.93425 17.9022 3.93088L20.4678 6.28888H11.5321L14.0977 3.93088ZM30.125 28.8107H1.875V17.8045L4.39019 21.5378C4.48731 21.6819 4.62244 21.7962 4.78056 21.8679C6.98706 22.8686 9.39131 23.5542 11.9375 23.9123V25.9954C11.9375 26.5137 12.3573 26.9339 12.875 26.9339H19.125C19.6427 26.9339 20.0625 26.5138 20.0625 25.9954V23.9123C22.6087 23.5542 25.0129 22.8686 27.2194 21.8679C27.3776 21.7961 27.5127 21.6819 27.6098 21.5378L30.125 17.8045V28.8107ZM13.8125 25.0571V23.0941C13.8125 23.0936 13.8125 23.0931 13.8125 23.0926V20.6778H18.1875V23.0926C18.1875 23.0931 18.1875 23.0936 18.1875 23.0941V25.0571H13.8125ZM30.125 14.4477L26.2054 20.2656C24.3036 21.1011 22.2423 21.6878 20.0625 22.0163V19.7394C20.0625 19.2212 19.6427 18.801 19.125 18.801H12.875C12.3573 18.801 11.9375 19.2211 11.9375 19.7394V22.0163C9.75769 21.6878 7.69644 21.1011 5.79462 20.2656L1.875 14.4477V8.16569H30.125V14.4477Z" fill="#005BFF"/>
</svg>
