<svg width="20" height="20" viewBox="0 0 20 20" fill="none" xmlns="http://www.w3.org/2000/svg">
<path d="M12.5 1.66666C13.0852 1.66659 13.6602 1.82061 14.167 2.11322C14.6738 2.40583 15.0947 2.82672 15.3873 3.33357C15.6798 3.84043 15.8338 4.41538 15.8337 5.00062C15.8336 5.58586 15.6794 6.16075 15.3866 6.6675L19.1666 6.66666V8.33333H17.5V16.6667C17.5 16.8877 17.4122 17.0996 17.2559 17.2559C17.0996 17.4122 16.8877 17.5 16.6666 17.5H3.33331C3.1123 17.5 2.90034 17.4122 2.74406 17.2559C2.58778 17.0996 2.49998 16.8877 2.49998 16.6667V8.33333H0.833313V6.66666L4.61331 6.6675C4.19986 5.95157 4.06722 5.10754 4.24113 4.29931C4.41504 3.49107 4.8831 2.7763 5.55442 2.29379C6.22575 1.81128 7.05242 1.59545 7.87394 1.68823C8.69545 1.781 9.45317 2.17575 9.99998 2.79583C10.3121 2.44031 10.6967 2.15564 11.1279 1.96089C11.559 1.76615 12.0269 1.66583 12.5 1.66666ZM9.16665 8.33333H4.16665V15.8333H9.16665V8.33333ZM15.8333 8.33333H10.8333V15.8333H15.8333V8.33333ZM7.49998 3.33333C7.06749 3.33139 6.65119 3.49765 6.33902 3.79698C6.02685 4.0963 5.84326 4.50526 5.82703 4.93744C5.8108 5.36963 5.96321 5.7912 6.25206 6.11309C6.5409 6.43499 6.94357 6.63199 7.37498 6.66249L7.49998 6.66666H9.16665V4.99999C9.16666 4.60171 9.02405 4.21659 8.76464 3.91438C8.50523 3.61216 8.14616 3.41283 7.75248 3.35249L7.62415 3.3375L7.49998 3.33333ZM12.5 3.33333C12.0795 3.3332 11.6745 3.492 11.3662 3.77791C11.0579 4.06382 10.869 4.4557 10.8375 4.87499L10.8333 4.99999V6.66666H12.5C12.9205 6.66679 13.3255 6.50799 13.6338 6.22208C13.9421 5.93617 14.1309 5.54429 14.1625 5.12499L14.1666 4.99999C14.1666 4.55797 13.991 4.13404 13.6785 3.82148C13.3659 3.50892 12.942 3.33333 12.5 3.33333Z" fill="#F2042C"/>
</svg>
