<svg width="33" height="32" viewBox="0 0 33 32" fill="none" xmlns="http://www.w3.org/2000/svg">
<path d="M27.1666 9.33329H21.8333V5.33329C21.8333 3.86263 20.6373 2.66663 19.1666 2.66663H13.8333C12.3626 2.66663 11.1666 3.86263 11.1666 5.33329V12H5.83329C4.36263 12 3.16663 13.196 3.16663 14.6666V26.6666C3.16663 27.4026 3.76263 28 4.49996 28H12.5H20.5H28.5C29.2373 28 29.8333 27.4026 29.8333 26.6666V12C29.8333 10.5293 28.6373 9.33329 27.1666 9.33329ZM5.83329 14.6666H11.1666V25.3333H5.83329V14.6666ZM13.8333 13.3333V5.33329H19.1666V10.6666V25.3333H13.8333V13.3333ZM27.1666 25.3333H21.8333V12H27.1666V25.3333Z" fill="#2B2A29"/>
</svg>
