<svg width="20" height="20" viewBox="0 0 20 20" fill="none" xmlns="http://www.w3.org/2000/svg">
<path d="M16.6667 3.33331H5.00004C4.08087 3.33331 3.33337 4.08081 3.33337 4.99998V9.16665H5.00004V6.66665L10.3334 10.6666C10.4817 10.7775 10.6575 10.8333 10.8334 10.8333C11.0092 10.8333 11.185 10.7775 11.3334 10.6666L16.6667 6.66665V14.1666H10V15.8333H16.6667C17.5859 15.8333 18.3334 15.0858 18.3334 14.1666V4.99998C18.3334 4.08081 17.5859 3.33331 16.6667 3.33331ZM10.8334 8.95831L5.55504 4.99998H16.1117L10.8334 8.95831Z" fill="#F2042C"/>
<path d="M1.66663 10H7.49996V11.6667H1.66663V10ZM3.33329 12.5H8.33329V14.1667H3.33329V12.5ZM5.83329 15H9.16663V16.6667H5.83329V15Z" fill="#F2042C"/>
</svg>
