<svg width="22" height="22" viewBox="0 0 22 22" fill="none" xmlns="http://www.w3.org/2000/svg">
<path d="M11 7.79998C10.1513 7.79998 9.33735 8.13712 8.73724 8.73724C8.13712 9.33735 7.79998 10.1513 7.79998 11C7.79998 11.8487 8.13712 12.6626 8.73724 13.2627C9.33735 13.8628 10.1513 14.2 11 14.2C11.8487 14.2 12.6626 13.8628 13.2627 13.2627C13.8628 12.6626 14.2 11.8487 14.2 11C14.2 10.1513 13.8628 9.33735 13.2627 8.73724C12.6626 8.13712 11.8487 7.79998 11 7.79998ZM11 5.66665C12.4145 5.66665 13.771 6.22855 14.7712 7.22874C15.7714 8.22894 16.3333 9.58549 16.3333 11C16.3333 12.4145 15.7714 13.771 14.7712 14.7712C13.771 15.7714 12.4145 16.3333 11 16.3333C9.58549 16.3333 8.22894 15.7714 7.22874 14.7712C6.22855 13.771 5.66665 12.4145 5.66665 11C5.66665 9.58549 6.22855 8.22894 7.22874 7.22874C8.22894 6.22855 9.58549 5.66665 11 5.66665ZM17.9333 5.39998C17.9333 5.7536 17.7928 6.09274 17.5428 6.34279C17.2927 6.59284 16.9536 6.73331 16.6 6.73331C16.2464 6.73331 15.9072 6.59284 15.6572 6.34279C15.4071 6.09274 15.2666 5.7536 15.2666 5.39998C15.2666 5.04636 15.4071 4.70722 15.6572 4.45717C15.9072 4.20712 16.2464 4.06665 16.6 4.06665C16.9536 4.06665 17.2927 4.20712 17.5428 4.45717C17.7928 4.70722 17.9333 5.04636 17.9333 5.39998ZM11 2.46665C8.36105 2.46665 7.93011 2.47411 6.70238 2.52851C5.86611 2.56798 5.30505 2.67998 4.78451 2.88265C4.32158 3.06185 3.98771 3.27625 3.63251 3.63251C3.29865 3.95507 3.04196 4.34887 2.88158 4.78451C2.67891 5.30718 2.56691 5.86718 2.52851 6.70238C2.47305 7.87998 2.46665 8.29171 2.46665 11C2.46665 13.6389 2.47411 14.0698 2.52851 15.2976C2.56798 16.1328 2.67998 16.6949 2.88158 17.2144C3.06291 17.6784 3.27625 18.0122 3.63038 18.3664C3.98985 18.7248 4.32371 18.9392 4.78238 19.1162C5.30931 19.32 5.87038 19.433 6.70238 19.4714C7.87998 19.5269 8.29171 19.5333 11 19.5333C13.6389 19.5333 14.0698 19.5258 15.2976 19.4714C16.1317 19.432 16.6938 19.32 17.2144 19.1184C17.6762 18.9381 18.0122 18.7237 18.3664 18.3696C18.7258 18.0101 18.9402 17.6762 19.1173 17.2176C19.32 16.6917 19.433 16.1296 19.4714 15.2976C19.5269 14.12 19.5333 13.7082 19.5333 11C19.5333 8.36105 19.5258 7.93011 19.4714 6.70238C19.432 5.86825 19.32 5.30505 19.1173 4.78451C18.9566 4.34931 18.7003 3.95567 18.3674 3.63251C18.045 3.29848 17.6512 3.04176 17.2154 2.88158C16.6928 2.67891 16.1317 2.56691 15.2976 2.52851C14.12 2.47305 13.7082 2.46665 11 2.46665ZM11 0.333313C13.8981 0.333313 14.2597 0.34398 15.3968 0.397313C16.5328 0.450646 17.3061 0.62878 17.9866 0.893313C18.6906 1.16425 19.2837 1.53118 19.8768 2.12318C20.4192 2.6564 20.8389 3.30141 21.1066 4.01331C21.3701 4.69278 21.5493 5.46718 21.6026 6.60318C21.6528 7.74025 21.6666 8.10185 21.6666 11C21.6666 13.8981 21.656 14.2597 21.6026 15.3968C21.5493 16.5328 21.3701 17.3061 21.1066 17.9866C20.8396 18.6989 20.4198 19.3441 19.8768 19.8768C19.3434 20.419 18.6984 20.8386 17.9866 21.1066C17.3072 21.3701 16.5328 21.5493 15.3968 21.6026C14.2597 21.6528 13.8981 21.6666 11 21.6666C8.10185 21.6666 7.74025 21.656 6.60318 21.6026C5.46718 21.5493 4.69385 21.3701 4.01331 21.1066C3.30113 20.8394 2.65601 20.4197 2.12318 19.8768C1.58068 19.3436 1.16097 18.6986 0.893313 17.9866C0.62878 17.3072 0.450646 16.5328 0.397313 15.3968C0.34718 14.2597 0.333313 13.8981 0.333313 11C0.333313 8.10185 0.34398 7.74025 0.397313 6.60318C0.450646 5.46611 0.62878 4.69385 0.893313 4.01331C1.16023 3.30097 1.58004 2.65579 2.12318 2.12318C2.65616 1.58049 3.30124 1.16076 4.01331 0.893313C4.69385 0.62878 5.46611 0.450646 6.60318 0.397313C7.74025 0.34718 8.10185 0.333313 11 0.333313Z" fill="white"/>
</svg>
