<svg width="74" height="22" viewBox="0 0 74 22" fill="none" xmlns="http://www.w3.org/2000/svg">
<path fill-rule="evenodd" clip-rule="evenodd" d="M0.11853 20.9907L9.41436 0.723467H18.3297L27.5983 20.9907H19.7431L18.3297 17.5069H9.41436L7.97378 20.9907H0.11853ZM13.872 5.56218L10.8821 13.0553H16.8619L13.872 5.56218ZM29.6097 0.723467H42.3031C45.3745 0.723467 47.4403 1.27646 48.5003 2.3548C49.5876 3.43314 50.104 4.62209 50.104 5.89397C50.104 6.88937 49.7235 7.77416 48.9352 8.5207C48.147 9.26725 47.1956 9.79259 46.0269 10.0967V10.1797C47.3587 10.4009 48.6362 10.9262 49.805 11.7281C51.001 12.5299 51.5718 13.7465 51.5718 15.3502C51.5718 16.3456 51.2728 17.2857 50.6748 18.1428C50.0496 19 49.0983 19.6912 47.8208 20.2166C46.5161 20.7419 44.9125 20.9907 43.0098 20.9907H29.6097V0.723467ZM36.9485 8.71425H40.0199C41.2974 8.71425 42.1944 8.5207 42.6565 8.13361C43.1457 7.77416 43.3903 7.30411 43.3903 6.80642C43.3903 6.19812 43.1185 5.72808 42.5749 5.34098C42.0313 4.98153 41.1887 4.78798 40.0199 4.78798H36.9485V8.71425ZM36.9485 16.9539H40.3189C42.9283 16.9539 44.2601 16.235 44.2601 14.7972C44.2601 13.9124 43.8524 13.3594 43.0642 13.1382C42.3031 12.8894 41.379 12.7788 40.3189 12.7788H36.9485V16.9539ZM73.8328 20.0783C71.9302 21.0737 69.5654 21.5714 66.7386 21.5714C64.836 21.5714 63.042 21.3225 61.4112 20.8249C59.7532 20.2995 58.3126 19.5806 57.1438 18.6405C55.9479 17.7004 54.9965 16.5668 54.3442 15.2396C53.6919 13.9124 53.3657 12.447 53.3657 10.8709C53.3657 9.21195 53.719 7.71886 54.3986 6.39167C55.1053 5.03683 56.0566 3.93084 57.3069 2.99075C58.53 2.05066 59.9706 1.35941 61.5743 0.861716C63.1779 0.39167 64.8632 0.142822 66.6299 0.142822C67.8802 0.142822 69.1305 0.281071 70.3809 0.557569C71.6312 0.806417 72.7728 1.22116 73.8328 1.77416V7.66356C72.0117 6.03222 69.946 5.23038 67.6084 5.23038C66.3037 5.23038 65.135 5.47923 64.1293 5.97692C63.0964 6.47462 62.3082 7.16586 61.7645 8.05066C61.1938 8.93545 60.9219 9.93084 60.9219 11.0368C60.9219 12.0599 61.1938 13 61.7374 13.8295C62.281 14.659 63.042 15.3225 64.0477 15.7926C65.0534 16.2626 66.2494 16.5115 67.6084 16.5115C69.8916 16.5115 71.9845 15.7649 73.8328 14.2995V20.0783Z" fill="white"/>
</svg>
