<svg width="20" height="20" viewBox="0 0 20 20" fill="none" xmlns="http://www.w3.org/2000/svg">
<path d="M3.33331 15H4.99998V16.6667H15V3.33332H4.99998V4.99999H3.33331V2.49999C3.33331 2.27898 3.42111 2.06701 3.57739 1.91073C3.73367 1.75445 3.94563 1.66666 4.16665 1.66666H15.8333C16.0543 1.66666 16.2663 1.75445 16.4226 1.91073C16.5788 2.06701 16.6666 2.27898 16.6666 2.49999V17.5C16.6666 17.721 16.5788 17.933 16.4226 18.0892C16.2663 18.2455 16.0543 18.3333 15.8333 18.3333H4.16665C3.94563 18.3333 3.73367 18.2455 3.57739 18.0892C3.42111 17.933 3.33331 17.721 3.33331 17.5V15ZM4.99998 9.16666H10.8333V10.8333H4.99998V13.3333L0.833313 9.99999L4.99998 6.66666V9.16666Z" fill="#F2042C"/>
</svg>
