<svg width="16" height="16" viewBox="0 0 16 16" fill="none" xmlns="http://www.w3.org/2000/svg">
<path d="M12.5833 15.5C11.8098 15.5 11.0679 15.1927 10.5209 14.6457C9.97396 14.0987 9.66667 13.3569 9.66667 12.5833C9.66667 11.8098 9.97396 11.0679 10.5209 10.5209C11.0679 9.97396 11.8098 9.66667 12.5833 9.66667C13.3569 9.66667 14.0987 9.97396 14.6457 10.5209C15.1927 11.0679 15.5 11.8098 15.5 12.5833C15.5 13.3569 15.1927 14.0987 14.6457 14.6457C14.0987 15.1927 13.3569 15.5 12.5833 15.5ZM12.5833 13.8333C12.9149 13.8333 13.2328 13.7016 13.4672 13.4672C13.7016 13.2328 13.8333 12.9149 13.8333 12.5833C13.8333 12.2518 13.7016 11.9339 13.4672 11.6995C13.2328 11.465 12.9149 11.3333 12.5833 11.3333C12.2518 11.3333 11.9339 11.465 11.6995 11.6995C11.465 11.9339 11.3333 12.2518 11.3333 12.5833C11.3333 12.9149 11.465 13.2328 11.6995 13.4672C11.9339 13.7016 12.2518 13.8333 12.5833 13.8333ZM3.41667 6.33333C3.03364 6.33333 2.65437 6.25789 2.30051 6.11132C1.94664 5.96474 1.62511 5.7499 1.35427 5.47906C1.08343 5.20822 0.868594 4.88669 0.722018 4.53283C0.575442 4.17896 0.5 3.79969 0.5 3.41667C0.5 3.03364 0.575442 2.65437 0.722018 2.30051C0.868594 1.94664 1.08343 1.62511 1.35427 1.35427C1.62511 1.08343 1.94664 0.868594 2.30051 0.722018C2.65437 0.575442 3.03364 0.5 3.41667 0.5C4.19021 0.5 4.93208 0.807291 5.47906 1.35427C6.02604 1.90125 6.33333 2.64312 6.33333 3.41667C6.33333 4.19021 6.02604 4.93208 5.47906 5.47906C4.93208 6.02604 4.19021 6.33333 3.41667 6.33333ZM3.41667 4.66667C3.74819 4.66667 4.06613 4.53497 4.30055 4.30055C4.53497 4.06613 4.66667 3.74819 4.66667 3.41667C4.66667 3.08515 4.53497 2.7672 4.30055 2.53278C4.06613 2.29836 3.74819 2.16667 3.41667 2.16667C3.08515 2.16667 2.7672 2.29836 2.53278 2.53278C2.29836 2.7672 2.16667 3.08515 2.16667 3.41667C2.16667 3.74819 2.29836 4.06613 2.53278 4.30055C2.7672 4.53497 3.08515 4.66667 3.41667 4.66667ZM13.8925 0.929167L15.0708 2.1075L2.10833 15.0708L0.93 13.8925L13.8917 0.929167H13.8925Z" fill="#F2042C"/>
</svg>
