<svg width="20" height="20" viewBox="0 0 20 20" fill="none" xmlns="http://www.w3.org/2000/svg">
<path d="M18.3334 16.6667H1.66669V15H2.50002V9.19252C2.50002 5.03585 5.85835 1.66669 10 1.66669C14.1417 1.66669 17.5 5.03585 17.5 9.19252V15H18.3334V16.6667ZM4.16669 15H15.8334V9.19252C15.8334 5.95669 13.2217 3.33335 10 3.33335C6.77835 3.33335 4.16669 5.95669 4.16669 9.19252V15ZM7.91669 17.5H12.0834C12.0834 18.0526 11.8639 18.5825 11.4732 18.9732C11.0825 19.3639 10.5526 19.5834 10 19.5834C9.44749 19.5834 8.91758 19.3639 8.52688 18.9732C8.13618 18.5825 7.91669 18.0526 7.91669 17.5Z" fill="#F2042C"/>
</svg>
