<svg width="12" height="20" viewBox="0 0 12 20" fill="none" xmlns="http://www.w3.org/2000/svg">
<path d="M0.176794 10.734C-0.313643 11.7381 0.243199 12.218 1.5137 13.0379C2.59378 13.7329 4.08589 13.987 5.04436 14.0887L4.2411 14.8936C3.10262 16.0226 2.02253 17.1159 1.26728 17.8733C0.167994 18.9707 1.93773 20.7313 3.03621 19.6573L6.01004 16.6701C7.14852 17.8108 8.2398 18.904 8.98386 19.6614C10.0831 20.7397 11.8521 18.994 10.7648 17.8775L7.79097 14.8978L6.97651 14.0928C7.94698 13.9912 9.41669 13.722 10.484 13.0421L10.4832 13.0413C11.7537 12.2172 12.3105 11.7381 11.8273 10.734C11.5353 10.1641 10.748 9.68745 9.69991 10.5115C9.69991 10.5115 8.28461 11.6406 6.00203 11.6406C3.71866 11.6406 2.30416 10.5115 2.30416 10.5115C1.25608 9.68328 0.465616 10.1641 0.176794 10.734Z" fill="white"/>
<path d="M5.99889 10.1177C8.78148 10.1177 11.0536 7.85281 11.0536 5.06466C11.0536 2.26485 8.78148 0 5.99889 0C3.21551 0 0.943359 2.26485 0.943359 5.06466C0.943359 7.85281 3.21551 10.1177 5.99889 10.1177ZM5.99889 2.56566C7.36618 2.56566 8.48146 3.68309 8.48146 5.06466C8.48146 6.43457 7.36618 7.552 5.99889 7.552C4.6316 7.552 3.51633 6.43457 3.51633 5.06466C3.51553 3.68225 4.6308 2.56566 5.99889 2.56566Z" fill="white"/>
</svg>
