<svg width="16" height="17" viewBox="0 0 16 17" fill="none" xmlns="http://www.w3.org/2000/svg">
<path d="M8 0.666626C5.7025 0.666626 3.83333 2.53579 3.83333 4.83329C3.83333 7.13079 5.7025 8.99996 8 8.99996C10.2975 8.99996 12.1667 7.13079 12.1667 4.83329C12.1667 2.53579 10.2975 0.666626 8 0.666626ZM8 7.33329C6.62167 7.33329 5.5 6.21163 5.5 4.83329C5.5 3.45496 6.62167 2.33329 8 2.33329C9.37833 2.33329 10.5 3.45496 10.5 4.83329C10.5 6.21163 9.37833 7.33329 8 7.33329ZM15.5 16.5V15.6666C15.5 12.4508 12.8825 9.83329 9.66667 9.83329H6.33333C3.11667 9.83329 0.5 12.4508 0.5 15.6666V16.5H2.16667V15.6666C2.16667 13.3691 4.03583 11.5 6.33333 11.5H9.66667C11.9642 11.5 13.8333 13.3691 13.8333 15.6666V16.5H15.5Z" fill="#2B2A29"/>
</svg>
