<svg width="20" height="20" viewBox="0 0 20 20" fill="none" xmlns="http://www.w3.org/2000/svg">
<path d="M14.7558 10.2442C14.43 9.91832 13.9033 9.91832 13.5775 10.2442L12.2492 11.5725C11.6333 11.3892 10.4842 10.9725 9.75585 10.2442C9.02751 9.51582 8.61085 8.36665 8.42751 7.75082L9.75585 6.42248C10.0817 6.09665 10.0817 5.56998 9.75585 5.24415L6.42251 1.91082C6.09668 1.58498 5.57001 1.58498 5.24418 1.91082L2.98418 4.17082C2.66751 4.48748 2.48918 4.92248 2.49585 5.36665C2.51501 6.55332 2.82918 10.675 6.07751 13.9233C9.32585 17.1717 13.4475 17.485 14.635 17.505C14.6392 17.505 14.6542 17.505 14.6583 17.505C15.0983 17.505 15.5142 17.3317 15.8292 17.0167L18.0892 14.7567C18.415 14.4308 18.415 13.9042 18.0892 13.5783L14.7558 10.2442ZM14.65 15.8375C13.61 15.82 10.0517 15.5408 7.25585 12.7442C4.45085 9.93915 4.17918 6.36832 4.16251 5.34915L5.83335 3.67832L7.98835 5.83332L6.91085 6.91082C6.71168 7.10915 6.62668 7.39582 6.68418 7.67082C6.70418 7.76665 7.19335 10.0392 8.57668 11.4225C9.96001 12.8058 12.2325 13.295 12.3283 13.315C12.6058 13.3742 12.89 13.2883 13.0883 13.0892L14.1667 12.0117L16.3217 14.1667L14.65 15.8375Z" fill="#F2042C"/>
</svg>
