<svg width="18" height="18" viewBox="0 0 18 18" fill="none" xmlns="http://www.w3.org/2000/svg">
<path d="M4.42999 10.9358L3.18832 16.3125C3.11166 16.645 3.24499 16.9908 3.52666 17.185C3.66916 17.2833 3.83416 17.3333 3.99999 17.3333C4.16082 17.3333 4.32249 17.2866 4.46249 17.1933L8.99999 14.1683L13.5375 17.1933C13.8275 17.3866 14.2083 17.3791 14.4917 17.1733C14.7733 16.9675 14.8975 16.6066 14.8017 16.2716L13.2775 10.9383L17.0575 7.53663C17.305 7.31329 17.3958 6.96496 17.2892 6.64996C17.1817 6.33496 16.8975 6.11329 16.5658 6.08663L11.815 5.70829L9.75916 1.15746C9.62499 0.858293 9.32749 0.666626 8.99999 0.666626C8.67249 0.666626 8.37499 0.858293 8.24082 1.15746L6.18499 5.70829L1.43416 6.08579C1.10749 6.11163 0.826655 6.32579 0.716655 6.63329C0.604988 6.94079 0.684989 7.28496 0.918322 7.51329L4.42999 10.9358ZM6.80749 7.33079C7.10999 7.30663 7.37666 7.11996 7.50082 6.84246L8.99999 3.52496L10.4992 6.84246C10.6233 7.11996 10.89 7.30663 11.1925 7.33079L14.5025 7.59329L11.7767 10.0466C11.54 10.26 11.4458 10.5883 11.5325 10.895L12.5767 14.5491L9.46332 12.4733C9.18332 12.2858 8.81916 12.2858 8.53916 12.4733L5.28582 14.6425L6.16082 10.8541C6.22582 10.5708 6.13916 10.2733 5.93082 10.0708L3.39916 7.60246L6.80749 7.33079Z" fill="#F2042C"/>
</svg>
