<svg width="18" height="18" viewBox="0 0 18 18" fill="none" xmlns="http://www.w3.org/2000/svg">
<path d="M17.2775 5.62788L17.2775 5.62702C17.2751 5.56852 17.2695 5.51208 17.2551 5.45995C17.2533 5.45349 17.2503 5.44628 17.2458 5.43625C17.2452 5.43492 17.2446 5.43351 17.2439 5.43203C17.24 5.42348 17.2352 5.41273 17.2312 5.40188L17.2775 5.62788ZM17.2775 5.62788C17.2782 5.63837 17.2802 5.64796 17.2814 5.65359L17.2818 5.6552C17.2831 5.66154 17.2833 5.66352 17.2833 5.66494V5.66577V5.66661V12.3333C17.2833 12.6176 17.129 12.8801 16.8815 13.0179M17.2775 5.62788L16.8815 13.0179M9.42413 17.2174L16.9058 13.0616M9.42413 17.2174L17.3033 5.44661C17.3191 5.50411 17.325 5.56494 17.3275 5.62494C17.3278 5.63145 17.3291 5.63743 17.3304 5.64336C17.3318 5.65035 17.3333 5.65728 17.3333 5.66494V5.66577V5.66661V12.3333C17.3333 12.6358 17.1691 12.9149 16.9058 13.0616M9.42413 17.2174L9.42329 17.2183M9.42413 17.2174L8.59663 17.2283M16.9058 13.0616L16.8815 13.0179M16.9058 13.0616L16.8815 13.0179M16.8815 13.0179L16.8815 13.0179M16.8815 13.0179L16.8815 13.0179M16.8815 13.0179L9.39985 17.1737L9.39888 17.172L9.39315 17.1777M16.8815 13.0179L1.10129 4.99274M9.39315 17.1777L9.38086 17.1845L9.38086 17.1845L9.37983 17.1851C9.35861 17.1974 9.33813 17.2044 9.31318 17.2129C9.30153 17.2169 9.28891 17.2212 9.27479 17.2265L9.27414 17.2268C9.26326 17.231 9.25204 17.236 9.2422 17.2404C9.23859 17.2421 9.23516 17.2436 9.232 17.245C9.2194 17.2505 9.20889 17.2547 9.19891 17.2574M9.39315 17.1777L9.39261 17.1782C9.39072 17.1796 9.38939 17.1808 9.38867 17.1815L9.38691 17.1831L9.38627 17.1838L9.42163 17.2191M9.39315 17.1777L9.39414 17.1772C9.39576 17.1761 9.39768 17.1749 9.39987 17.1738C9.39995 17.1737 9.40002 17.1737 9.4001 17.1737C9.40695 17.1702 9.41328 17.169 9.41782 17.1685L9.42202 17.1683L9.42292 17.1683H9.42329V17.2159V17.2166V17.2183M9.19891 17.2574C9.13338 17.274 9.066 17.2833 8.99996 17.2833C8.93381 17.2833 8.86645 17.2739 8.80275 17.2574M9.19891 17.2574C9.19876 17.2575 9.19862 17.2575 9.19847 17.2575L9.21163 17.3058M9.19891 17.2574C9.19906 17.2574 9.19921 17.2573 9.19936 17.2573L9.21163 17.3058M8.80275 17.2574C8.7923 17.2547 8.78151 17.2505 8.76896 17.245C8.7578 17.2401 8.74189 17.2326 8.72795 17.2269L8.7268 17.2265C8.71369 17.2216 8.70171 17.2174 8.69049 17.2135C8.66471 17.2045 8.64298 17.1969 8.621 17.1846L8.62072 17.1845L8.61409 17.1808M8.80275 17.2574C8.80267 17.2574 8.80259 17.2574 8.80251 17.2574L8.78996 17.3058M8.80275 17.2574L8.78996 17.3058M8.61409 17.1808L8.61423 17.1807L8.60174 17.1737L1.12007 13.0179L1.12 13.0179C0.870946 12.88 0.716626 12.6176 0.716626 12.3333V5.66661V5.66577V5.66494C0.716626 5.66279 0.716956 5.66012 0.718259 5.6536C0.718373 5.65303 0.7185 5.65241 0.718639 5.65173C0.719816 5.64597 0.721775 5.63638 0.722373 5.62621L0.72238 5.62609C0.7257 5.56716 0.730529 5.51199 0.744729 5.46192L0.744753 5.46192L0.745133 5.4604C0.747829 5.44962 0.752074 5.43878 0.757736 5.4262C0.759445 5.42241 0.761626 5.41775 0.763992 5.4127C0.76823 5.40365 0.77306 5.39334 0.776822 5.38447L0.776828 5.38447L0.777148 5.38368C0.783095 5.36897 0.787968 5.35574 0.792468 5.34352C0.802006 5.31763 0.809872 5.29627 0.822746 5.27498L0.822754 5.27498L0.823231 5.27416C0.833745 5.256 0.845309 5.24209 0.859521 5.22499C0.867268 5.21567 0.875802 5.2054 0.885382 5.19298L0.885388 5.19299L0.88593 5.19226C0.892876 5.18291 0.899076 5.17424 0.904896 5.16611C0.919388 5.14585 0.931529 5.12888 0.947 5.11279C0.963174 5.09722 0.980231 5.08503 1.00039 5.07062C1.00946 5.06414 1.01915 5.05721 1.02968 5.04932C1.02977 5.04925 1.02987 5.04918 1.02996 5.04911L0.999959 5.00911M8.61409 17.1808L8.60745 17.1772C8.60583 17.1761 8.60391 17.1749 8.60172 17.1738C8.60164 17.1737 8.60157 17.1737 8.6015 17.1737C8.59465 17.1702 8.58831 17.169 8.58377 17.1685L8.57957 17.1683L8.57866 17.1683H8.57829V17.2159V17.2166V17.2183M8.61409 17.1808L8.58302 17.2136M0.999959 5.00911C1.01088 5.00117 1.02087 4.99257 1.03079 4.98405C1.04584 4.9711 1.0607 4.95833 1.07829 4.94827C1.08031 4.94693 1.08287 4.94613 1.0851 4.94543C1.08563 4.94526 1.08615 4.9451 1.08663 4.94494C1.08979 4.94304 1.09199 4.94066 1.09397 4.93853C1.09459 4.93786 1.09519 4.93721 1.09579 4.93661M0.999959 5.00911C0.991506 5.01545 0.982919 5.02159 0.97435 5.02772C0.952509 5.04334 0.930778 5.05889 0.911626 5.07744C0.893126 5.09656 0.87782 5.11796 0.862331 5.13961C0.85689 5.14722 0.851426 5.15486 0.845793 5.16244L0.999959 5.00911ZM1.09579 4.93661L1.11999 4.98036L1.12662 4.9767M1.09579 4.93661L1.13115 4.97196C1.13134 4.97177 1.13142 4.97168 1.13058 4.97258L1.12719 4.97613C1.127 4.97632 1.12681 4.9765 1.12662 4.9767M1.09579 4.93661L8.61329 0.778275M1.12662 4.9767C1.12345 4.97981 1.11874 4.98398 1.11235 4.98782L1.10282 4.99354L1.10243 4.99238L1.10129 4.99274M1.12662 4.9767L8.63732 0.822125L8.61329 0.778275M1.10129 4.99274C1.10164 4.99253 1.10199 4.99233 1.10235 4.99212C1.1026 4.99197 1.10285 4.99183 1.1031 4.99169L1.10316 4.99179L1.10603 4.98988C1.10496 4.99059 1.10397 4.99117 1.10308 4.99165C1.10282 4.99179 1.10256 4.99192 1.10232 4.99205C1.10053 4.99296 1.09935 4.99336 1.09928 4.99338C1.09908 4.99345 1.09907 4.99345 1.09963 4.99327L1.10129 4.99274ZM8.61329 0.778275L8.6375 0.822027L8.63742 0.822066C8.87508 0.691914 9.16174 0.691319 9.39726 0.822768L9.39734 0.822812L16.8768 4.97948M8.61329 0.778275C8.86579 0.639941 9.17079 0.639108 9.42163 0.779108L16.9041 4.93744M16.9041 4.93744L16.8764 4.97904C16.8761 4.97884 16.8758 4.97864 16.8757 4.97853C16.8754 4.97836 16.8755 4.9784 16.8762 4.97898C16.8764 4.97911 16.8766 4.97928 16.8768 4.97948M16.9041 4.93744L16.8798 4.98115L16.8768 4.97948M16.9041 4.93744C16.9054 4.93827 16.9064 4.93911 16.9075 4.93994C16.9085 4.94077 16.9095 4.94161 16.9108 4.94244C16.9128 4.94363 16.9148 4.94425 16.9166 4.94485C16.9187 4.94551 16.9207 4.94613 16.9225 4.94744C16.9501 4.96405 16.9737 4.9843 16.9973 5.00449C17.0056 5.01165 17.014 5.0188 17.0225 5.02577M16.8768 4.97948C16.8781 4.98046 16.8803 4.98223 16.8831 4.98405L16.883 4.98409L16.8851 4.98532C16.8905 4.98857 16.8958 4.99062 16.899 4.99171M16.899 4.99171L17.0525 5.11238M16.899 4.99171C16.9002 4.99212 16.9011 4.9924 16.9016 4.99254L16.899 4.99171ZM16.899 4.99171C16.8983 4.99124 16.8975 4.99078 16.8967 4.99032L16.8923 4.98766L16.8925 4.98744C16.894 4.98856 16.8954 4.98949 16.8968 4.99024L16.899 4.99171ZM17.0225 5.02577L16.9903 5.06406C16.9904 5.06411 16.9904 5.06415 16.9905 5.0642C16.9906 5.06427 16.9907 5.06435 16.9907 5.06443L17.0225 5.02577ZM17.0225 5.02577C17.0313 5.03316 17.0408 5.0401 17.0503 5.04703C17.0634 5.05653 17.0764 5.06601 17.0875 5.07661M17.0875 5.07661L17.0521 5.11196C17.0522 5.1121 17.0524 5.11224 17.0525 5.11238M17.0875 5.07661L17.0529 5.11274C17.0528 5.11262 17.0526 5.1125 17.0525 5.11238M17.0875 5.07661C17.1162 5.10532 17.1397 5.13858 17.1632 5.1718C17.1663 5.17619 17.1693 5.18057 17.1725 5.18494C17.1785 5.19325 17.185 5.20107 17.1914 5.20882C17.2016 5.22128 17.2117 5.23357 17.22 5.24744M17.0525 5.11238C17.0778 5.13778 17.0986 5.16721 17.1223 5.20066C17.1254 5.20501 17.1285 5.20943 17.1317 5.21392L17.1321 5.21444C17.1391 5.22404 17.1468 5.2334 17.1533 5.24129C17.1551 5.24346 17.1568 5.24553 17.1584 5.24745C17.1662 5.25706 17.1721 5.26485 17.1768 5.27269M17.22 5.24744L17.1767 5.27243C17.1767 5.27252 17.1768 5.2726 17.1768 5.27269M17.22 5.24744L17.1769 5.27293C17.1769 5.27285 17.1769 5.27277 17.1768 5.27269M17.22 5.24744L17.1768 5.27269M8.59663 17.2283C8.62261 17.2428 8.65034 17.2525 8.67792 17.2621C8.68838 17.2657 8.69882 17.2694 8.70913 17.2733C8.71773 17.2768 8.72624 17.2806 8.73478 17.2845C8.75272 17.2926 8.77077 17.3007 8.78996 17.3058M8.59663 17.2283L8.57996 17.2191M8.59663 17.2283L8.57746 17.2174L8.57829 17.2183M8.78996 17.3058C8.85746 17.3233 8.92913 17.3333 8.99996 17.3333C9.07079 17.3333 9.14246 17.3233 9.21163 17.3058M9.21163 17.3058C9.22936 17.3009 9.24641 17.2933 9.26365 17.2856C9.27314 17.2814 9.2827 17.2771 9.29246 17.2733C9.30309 17.2693 9.31386 17.2656 9.32465 17.2619C9.3519 17.2526 9.37929 17.2432 9.40496 17.2283L9.42163 17.2191M9.42163 17.2191C9.42211 17.2186 9.42231 17.2184 9.42255 17.2183C9.42274 17.2183 9.42294 17.2183 9.42329 17.2183M9.42163 17.2191L9.41857 17.2136L9.42329 17.2183M8.57829 17.2183C8.57913 17.2183 8.57913 17.2183 8.57996 17.2191M8.57829 17.2183L8.58302 17.2136M8.57996 17.2191L8.58302 17.2136M8.57996 17.2191L8.61532 17.1838L8.61468 17.1831L8.61319 17.1817L8.58302 17.2136M0.696626 5.44827C0.701852 5.42737 0.710718 5.40849 0.719562 5.38966C0.72341 5.38147 0.727255 5.37328 0.730793 5.36494C0.735346 5.35368 0.739555 5.34228 0.743756 5.3309L0.696626 5.44827ZM0.696626 5.44827C0.680793 5.50411 0.675793 5.56411 0.672459 5.62327L0.696626 5.44827ZM8.95222 8.93691L8.97654 8.95052L9.00091 8.93698L11.2359 7.69532L11.3135 7.65222L11.2364 7.6082L5.54143 4.35403L5.51702 4.34008L5.49242 4.35369L3.19076 5.62702L3.1121 5.67054L3.19055 5.71441L8.95222 8.93691ZM9.04092 2.41707L9.01668 2.4036L8.99242 2.41702L7.19826 3.40952L7.12044 3.45257L7.19765 3.49669L12.8893 6.74919L12.9138 6.76317L12.9384 6.74948L14.8084 5.71031L14.8871 5.66661L14.8084 5.62291L9.04092 2.41707ZM2.3577 7.04381L2.28329 7.00218V7.08744V11.8424V11.8719L2.30901 11.8861L8.14234 15.1278L8.21663 15.1691V15.0841V10.3508V10.3215L8.19104 10.3071L2.3577 7.04381ZM9.78329 15.0841L9.78326 15.1691L9.85758 15.1278L15.6909 11.8861L15.7166 11.8719V11.8424V7.08827V7.00301L15.6422 7.04464L13.9755 7.97714L13.95 7.99146V8.02078V10.6357L12.3833 11.419V8.95328V8.86799L12.3089 8.90965L9.81054 10.308L9.78497 10.3223L9.78496 10.3516L9.78329 15.0841Z" fill="#F2042C" stroke="white" stroke-width="0.1"/>
</svg>
