<svg width="28" height="28" viewBox="0 0 28 28" fill="none" xmlns="http://www.w3.org/2000/svg">
<path d="M23.3333 27.3333H4.66663C3.60576 27.3333 2.58834 26.9119 1.8382 26.1617C1.08805 25.4116 0.666626 24.3942 0.666626 23.3333V1.99996C0.666626 1.64634 0.807102 1.3072 1.05715 1.05715C1.3072 0.807102 1.64634 0.666626 1.99996 0.666626H20.6666C21.0202 0.666626 21.3594 0.807102 21.6094 1.05715C21.8595 1.3072 22 1.64634 22 1.99996V18H27.3333V23.3333C27.3333 24.3942 26.9119 25.4116 26.1617 26.1617C25.4116 26.9119 24.3942 27.3333 23.3333 27.3333ZM22 20.6666V23.3333C22 23.6869 22.1404 24.0261 22.3905 24.2761C22.6405 24.5262 22.9797 24.6666 23.3333 24.6666C23.6869 24.6666 24.0261 24.5262 24.2761 24.2761C24.5262 24.0261 24.6666 23.6869 24.6666 23.3333V20.6666H22ZM19.3333 24.6666V3.33329H3.33329V23.3333C3.33329 23.6869 3.47377 24.0261 3.72382 24.2761C3.97387 24.5262 4.313 24.6666 4.66663 24.6666H19.3333ZM5.99996 7.33329H16.6666V9.99996H5.99996V7.33329ZM5.99996 12.6666H16.6666V15.3333H5.99996V12.6666ZM5.99996 18H12.6666V20.6666H5.99996V18Z" fill="#2B2A29"/>
</svg>
