<svg width="20" height="18" viewBox="0 0 20 18" fill="none" xmlns="http://www.w3.org/2000/svg">
<path d="M17.5 10.035V15.6666H18.3333V17.3333H1.66665V15.6666H2.49998V10.035C1.98696 9.69253 1.56641 9.22875 1.27566 8.68476C0.984919 8.14078 0.832973 7.53343 0.833314 6.91663C0.833314 6.22746 1.01998 5.56329 1.36081 4.99746L3.62081 1.08329C3.69395 0.956613 3.79915 0.851417 3.92583 0.778277C4.0525 0.705137 4.1962 0.66663 4.34248 0.666626H15.6583C15.8046 0.66663 15.9483 0.705137 16.075 0.778277C16.2016 0.851417 16.3068 0.956613 16.38 1.08329L18.6316 4.98496C19.1288 5.81069 19.2886 6.79624 19.0778 7.73674C18.8671 8.67725 18.302 9.50035 17.5 10.035ZM15.8333 10.6433C15.2603 10.7076 14.6803 10.6387 14.1382 10.4422C13.5962 10.2456 13.1069 9.92658 12.7083 9.50996C12.3585 9.87585 11.9381 10.1671 11.4727 10.366C11.0072 10.5649 10.5062 10.6675 9.99998 10.6675C9.49389 10.6677 8.99298 10.5654 8.5275 10.3668C8.06202 10.1681 7.64162 9.87722 7.29165 9.51163C6.893 9.9281 6.40363 10.247 5.86161 10.4434C5.31959 10.6398 4.73955 10.7085 4.16665 10.6441V15.6666H15.8333V10.6441V10.6433ZM4.82415 2.33329L2.79665 5.84413C2.59963 6.33091 2.59371 6.87415 2.78009 7.36511C2.96646 7.85607 3.33138 8.25854 3.8018 8.49195C4.27222 8.72537 4.81343 8.77252 5.31713 8.62397C5.82083 8.47542 6.24984 8.14213 6.51831 7.69079C6.79748 6.99329 7.78498 6.99329 8.06498 7.69079C8.2194 8.07781 8.48631 8.40963 8.83125 8.64338C9.17619 8.87713 9.5833 9.00208 9.99998 9.00208C10.4167 9.00208 10.8238 8.87713 11.1687 8.64338C11.5136 8.40963 11.7806 8.07781 11.935 7.69079C12.2141 6.99329 13.2016 6.99329 13.4816 7.69079C13.5898 7.957 13.7518 8.19796 13.9576 8.39852C14.1634 8.59909 14.4084 8.75492 14.6773 8.85623C14.9461 8.95753 15.2331 9.00212 15.52 8.9872C15.807 8.97227 16.0877 8.89814 16.3447 8.76948C16.6016 8.64082 16.8291 8.4604 17.0129 8.23957C17.1968 8.01874 17.3329 7.76226 17.4129 7.48627C17.4928 7.21028 17.5148 6.92073 17.4774 6.63584C17.4401 6.35094 17.3442 6.07685 17.1958 5.83079L15.175 2.33329H4.82498H4.82415Z" fill="#F2042C"/>
</svg>
