<svg width="84" height="11" viewBox="0 0 84 11" fill="none" xmlns="http://www.w3.org/2000/svg">
<path fill-rule="evenodd" clip-rule="evenodd" d="M2.33235 4.84461H6.41853C6.28586 4.28504 5.91439 3.82421 5.33065 3.46213C4.72038 3.10005 4.00397 2.93546 3.15489 2.93546C2.59769 2.93546 2.04048 3.0013 1.50981 3.16588C0.979136 3.33046 0.474997 3.56088 0.0239258 3.85712V1.48714C0.368863 1.35548 0.766867 1.22381 1.19141 1.12506C1.61594 1.02631 2.04048 0.927564 2.43849 0.894648C2.86302 0.828815 3.26103 0.795898 3.6325 0.795898C4.56117 0.795898 5.41025 0.927564 6.17973 1.1909C6.9492 1.42131 7.63907 1.75047 8.19628 2.2113C8.78002 2.63922 9.23109 3.16588 9.52296 3.79129C9.84137 4.38379 10.0006 5.07503 10.0006 5.76627C10.0006 6.6221 9.84137 7.37918 9.46989 8.03751C9.12496 8.69583 8.64735 9.25541 8.06361 9.68332C7.45334 10.1442 6.76347 10.4733 5.99399 10.6708C5.25105 10.9012 4.45504 11 3.6325 11C2.75689 11 2.04048 10.9341 1.43021 10.8025C0.846468 10.6379 0.368863 10.5062 0.0239258 10.3417V7.93876C0.952603 8.56417 2.04048 8.89333 3.31409 8.89333C3.97744 8.89333 4.53464 8.79458 5.01225 8.59708C5.48985 8.39959 5.86132 8.13625 6.10012 7.80709C6.36546 7.51084 6.52466 7.14876 6.5512 6.78668H2.33235V4.84461ZM13.4765 1.09215H23.2143V10.7366H19.6323V3.39629H17.0585V7.2146C17.0585 7.67542 17.032 8.10334 16.9524 8.49833C16.8728 8.86041 16.6605 9.25541 16.3686 9.61749C16.0768 9.97957 15.5992 10.2758 14.9624 10.5062C14.3255 10.7366 13.4765 10.8683 12.4151 10.8683C11.8314 10.8683 11.3538 10.8354 10.9292 10.7366V8.4325C11.2476 8.49833 11.513 8.53125 11.6987 8.53125C12.2029 8.53125 12.6009 8.4325 12.8397 8.30084C13.105 8.13625 13.2642 7.90584 13.3438 7.60959C13.4499 7.31334 13.4765 6.91835 13.4765 6.4246V1.09215ZM25.8411 10.7366V1.09215H33.5359V3.39629H29.4497V4.74587H33.1379V6.88543H29.4497V8.4325H33.5359V10.7366H25.8411ZM35.7912 10.7366V1.09215H39.3733V5.14086L43.2207 1.09215H47.4395L42.5839 5.76627L47.5722 10.7366H43.088L39.3733 6.58918V10.7366H35.7912ZM50.7031 10.7366V3.39629H47.8906V1.09215H57.1243V3.39629H54.2852V10.7366H50.7031ZM58.7163 10.7366V1.09215H64.1026C64.9782 1.09215 65.7212 1.1909 66.3314 1.38839C66.9417 1.58589 67.4193 1.84922 67.7908 2.17839C68.1357 2.50755 68.4011 2.83671 68.5603 3.1988C68.6929 3.56088 68.7725 3.95587 68.7725 4.31795C68.7725 4.68003 68.6929 5.04211 68.5603 5.43711C68.4011 5.79919 68.1357 6.12835 67.7643 6.45752C67.4193 6.78668 66.9417 7.05001 66.3314 7.24751C65.7212 7.44501 64.9782 7.54376 64.1026 7.54376H62.2983V10.7366H58.7163ZM62.2983 3.1988V5.43711H63.3331C64.5006 5.43711 65.0844 5.07503 65.0844 4.31795C65.0844 3.59379 64.5006 3.1988 63.3331 3.1988H62.2983ZM77.1041 11C75.9632 11 74.9549 10.8683 74.0793 10.605C73.2302 10.3087 72.4872 9.91374 71.93 9.45291C71.3463 8.95916 70.9218 8.4325 70.6299 7.80709C70.338 7.18168 70.2054 6.55627 70.2054 5.89794C70.2054 5.0092 70.4707 4.18629 70.9748 3.39629C71.479 2.63922 72.275 2.01381 73.3098 1.52006C74.3446 1.05923 75.6182 0.795898 77.1041 0.795898C78.2185 0.795898 79.2268 0.96048 80.1024 1.22381C80.978 1.52006 81.6944 1.88214 82.2516 2.37589C82.8354 2.83671 83.2599 3.39629 83.5518 4.0217C83.8436 4.6142 83.9763 5.23961 83.9763 5.89794C83.9763 6.58918 83.8436 7.2146 83.5518 7.84001C83.2599 8.4325 82.8354 8.99208 82.2516 9.45291C81.6944 9.94666 80.978 10.3417 80.1024 10.605C79.2268 10.8683 78.2185 11 77.1041 11ZM77.1041 8.69583C77.6613 8.69583 78.192 8.59708 78.6696 8.36667C79.1737 8.16917 79.5452 7.84001 79.8371 7.44501C80.1289 7.0171 80.2881 6.52335 80.2881 5.89794C80.2881 5.30544 80.1289 4.8117 79.8371 4.38379C79.5452 3.98879 79.1737 3.65962 78.6696 3.46213C78.192 3.23171 77.6613 3.13296 77.1041 3.13296C76.5204 3.13296 75.9897 3.23171 75.5121 3.46213C75.0079 3.65962 74.6365 3.98879 74.3446 4.38379C74.0527 4.8117 73.8935 5.30544 73.8935 5.89794C73.8935 6.52335 74.0527 7.0171 74.3446 7.44501C74.6365 7.84001 75.0079 8.16917 75.5121 8.36667C75.9897 8.59708 76.5204 8.69583 77.1041 8.69583Z" fill="#2B2A29"/>
</svg>
