<svg width="12" height="10" viewBox="0 0 12 10" fill="none" xmlns="http://www.w3.org/2000/svg">
<path d="M0.176794 0.734009C-0.313643 1.73807 0.243199 2.21803 1.5137 3.03794C2.59378 3.73287 4.08589 3.98701 5.04436 4.08867L4.2411 4.89359C3.10262 6.02264 2.02253 7.11586 1.26728 7.87329C0.167994 8.97068 1.93773 10.7313 3.03621 9.65727L6.01004 6.67008C7.14852 7.81079 8.2398 8.90402 8.98386 9.66144C10.0831 10.7397 11.8521 8.99401 10.7648 7.87745L7.79097 4.89776L6.97651 4.09284C7.94698 3.99118 9.41669 3.72204 10.484 3.04211L10.4832 3.04128C11.7537 2.21719 12.3105 1.73807 11.8273 0.734009C11.5353 0.164066 10.748 -0.312552 9.69991 0.511532C9.69991 0.511532 8.28461 1.64058 6.00203 1.64058C3.71866 1.64058 2.30416 0.511532 2.30416 0.511532C1.25608 -0.316718 0.465616 0.164066 0.176794 0.734009Z" fill="white"/>
</svg>
