<svg width="20" height="12" viewBox="0 0 20 12" fill="none" xmlns="http://www.w3.org/2000/svg">
<path d="M19.8439 0.914304C19.5976 0.689354 18.6397 0.717478 17.6819 0.717478C16.724 0.717478 15.7388 0.717476 15.5198 0.829951C15.3009 0.914308 14.8357 2.06718 14.2336 3.24816C13.5494 4.59786 12.701 5.8632 12.181 5.8632C11.4968 5.8632 11.661 3.64182 11.6884 2.03905C11.7158 0.970542 11.5516 0.633118 11.3874 0.520643C11.0316 0.267575 10.019 0.0145095 10.019 0.0145095C10.019 0.0145095 7.00859 -0.210442 6.59808 1.11114C7.1728 1.1955 8.15802 0.99866 7.77487 5.13212C7.74751 5.32895 7.30963 7.04419 5.9139 4.73845C5.55812 4.17608 4.21711 0.717478 3.75187 0.717478C2.19193 0.661241 0.659358 0.604998 0.11201 0.914304C-0.380602 1.19549 0.796198 3.58559 2.76665 6.76301C4.38132 9.34993 6.07809 11.4026 9.03377 11.9087C9.58111 11.965 11.0316 12.0212 11.4968 11.7963C11.7979 11.6275 11.4421 9.37805 12.4821 9.18122C12.9473 9.09686 14.7536 11.5151 15.4377 11.7963C15.8483 11.965 16.7514 12.0212 17.6819 11.9931C18.6945 11.965 19.8165 12.0774 19.926 11.3745C20.1723 9.82795 16.8882 7.8034 16.7787 6.84736C16.6966 6.17251 17.9829 4.87905 18.6397 3.92301C19.4881 2.74203 20.3639 1.33609 19.8439 0.914304Z" fill="white"/>
</svg>
