<svg width="18" height="12" viewBox="0 0 18 12" fill="none" xmlns="http://www.w3.org/2000/svg">
<path d="M17.7828 2.58197C17.7828 2.58197 17.6199 1.40164 17.0769 0.885246C16.3982 0.196721 15.6109 0.196721 15.2851 0.17213C12.7602 -7.47221e-07 8.98643 0 8.98643 0C8.98643 0 5.21267 -7.47221e-07 2.68778 0.17213C2.33484 0.221311 1.57466 0.221311 0.895924 0.885246C0.352938 1.40164 0.190049 2.58197 0.190049 2.58197C0.190049 2.58197 0 3.95902 0 5.33607V5.5082V6.63934C0 8.01639 0.190049 9.39344 0.190049 9.39344C0.190049 9.39344 0.352938 10.5738 0.895924 11.0902C1.57466 11.7787 2.47059 11.7541 2.87783 11.8279C4.31674 11.9508 9.01358 12 9.01358 12C9.01358 12 12.7873 12 15.3122 11.8279C15.6652 11.7787 16.4253 11.7787 17.1041 11.1148C17.6471 10.5984 17.81 9.41803 17.81 9.41803C17.81 9.41803 18 8.04098 18 6.66393V5.60656V5.36065C17.9729 3.95902 17.7828 2.58197 17.7828 2.58197ZM11.9729 5.80328L7.11313 8.18852V4.52459V3.41803L9.31222 4.5L11.9729 5.80328Z" fill="white"/>
</svg>
