<svg width="108" height="38" viewBox="0 0 108 38" fill="none" xmlns="http://www.w3.org/2000/svg">
<path d="M31.682 18.162C31.166 18.162 30.77 18.024 30.494 17.748C30.218 17.472 30.08 17.07 30.08 16.542V10.926C30.08 10.35 30.23 9.912 30.53 9.612C30.842 9.3 31.286 9.144 31.862 9.144H37.478C38.054 9.144 38.492 9.3 38.792 9.612C39.104 9.912 39.26 10.35 39.26 10.926V16.542C39.26 17.07 39.122 17.472 38.846 17.748C38.57 18.024 38.174 18.162 37.658 18.162C37.142 18.162 36.746 18.024 36.47 17.748C36.194 17.472 36.056 17.07 36.056 16.542V11.592H33.284V16.542C33.284 17.622 32.75 18.162 31.682 18.162ZM43.0199 21.402C41.9639 21.402 41.4359 20.862 41.4359 19.782V10.584C41.4359 9.516 41.9579 8.982 43.0019 8.982C43.9499 8.982 44.4719 9.426 44.5679 10.314C44.8079 9.894 45.1679 9.564 45.6479 9.324C46.1399 9.072 46.6799 8.946 47.2679 8.946C48.0239 8.946 48.6899 9.132 49.2659 9.504C49.8539 9.876 50.3099 10.41 50.6339 11.106C50.9699 11.79 51.1379 12.612 51.1379 13.572C51.1379 14.52 50.9759 15.342 50.6519 16.038C50.3279 16.734 49.8719 17.268 49.2839 17.64C48.7079 18.012 48.0359 18.198 47.2679 18.198C46.7159 18.198 46.1999 18.084 45.7199 17.856C45.2519 17.628 44.8919 17.322 44.6399 16.938V19.782C44.6399 20.31 44.4959 20.712 44.2079 20.988C43.9319 21.264 43.5359 21.402 43.0199 21.402ZM46.2599 15.84C46.7399 15.84 47.1359 15.66 47.4479 15.3C47.7599 14.94 47.9159 14.364 47.9159 13.572C47.9159 12.768 47.7599 12.192 47.4479 11.844C47.1359 11.484 46.7399 11.304 46.2599 11.304C45.7679 11.304 45.3659 11.484 45.0539 11.844C44.7419 12.192 44.5859 12.768 44.5859 13.572C44.5859 14.364 44.7419 14.94 45.0539 15.3C45.3659 15.66 45.7679 15.84 46.2599 15.84ZM57.3964 18.198C56.4124 18.198 55.5544 18.012 54.8224 17.64C54.0904 17.268 53.5204 16.734 53.1124 16.038C52.7044 15.342 52.5004 14.52 52.5004 13.572C52.5004 12.612 52.7044 11.79 53.1124 11.106C53.5204 10.41 54.0904 9.876 54.8224 9.504C55.5544 9.132 56.4124 8.946 57.3964 8.946C58.3804 8.946 59.2384 9.132 59.9704 9.504C60.7024 9.876 61.2664 10.41 61.6624 11.106C62.0704 11.79 62.2744 12.612 62.2744 13.572C62.2744 14.52 62.0704 15.342 61.6624 16.038C61.2664 16.734 60.7024 17.268 59.9704 17.64C59.2384 18.012 58.3804 18.198 57.3964 18.198ZM57.3964 15.84C57.8764 15.84 58.2724 15.66 58.5844 15.3C58.8964 14.94 59.0524 14.364 59.0524 13.572C59.0524 12.768 58.8964 12.192 58.5844 11.844C58.2724 11.484 57.8764 11.304 57.3964 11.304C56.9044 11.304 56.5024 11.484 56.1904 11.844C55.8784 12.192 55.7224 12.768 55.7224 13.572C55.7224 14.364 55.8784 14.94 56.1904 15.3C56.5024 15.66 56.9044 15.84 57.3964 15.84ZM68.5769 18.198C67.5809 18.198 66.7109 18.012 65.9669 17.64C65.2349 17.268 64.6649 16.734 64.2569 16.038C63.8489 15.342 63.6449 14.514 63.6449 13.554C63.6449 12.594 63.8489 11.772 64.2569 11.088C64.6649 10.392 65.2349 9.864 65.9669 9.504C66.7109 9.132 67.5809 8.946 68.5769 8.946C68.9249 8.946 69.2909 8.982 69.6749 9.054C70.0589 9.114 70.4549 9.234 70.8629 9.414C71.1389 9.522 71.3369 9.69 71.4569 9.918C71.5769 10.134 71.6249 10.368 71.6009 10.62C71.5889 10.872 71.5169 11.1 71.3849 11.304C71.2649 11.508 71.0909 11.646 70.8629 11.718C70.6469 11.79 70.4009 11.76 70.1249 11.628C69.7289 11.448 69.3269 11.358 68.9189 11.358C68.2829 11.358 67.7909 11.55 67.4429 11.934C67.0949 12.318 66.9209 12.858 66.9209 13.554C66.9209 14.262 67.0949 14.814 67.4429 15.21C67.7909 15.594 68.2829 15.786 68.9189 15.786C69.1109 15.786 69.3089 15.768 69.5129 15.732C69.7169 15.684 69.9209 15.612 70.1249 15.516C70.4129 15.384 70.6589 15.36 70.8629 15.444C71.0789 15.516 71.2469 15.654 71.3669 15.858C71.4989 16.05 71.5709 16.272 71.5829 16.524C71.6069 16.776 71.5589 17.016 71.4389 17.244C71.3189 17.46 71.1149 17.622 70.8269 17.73C70.4189 17.91 70.0289 18.03 69.6569 18.09C69.2849 18.162 68.9249 18.198 68.5769 18.198ZM76.5681 18.162C76.0521 18.162 75.6561 18.024 75.3801 17.748C75.1041 17.472 74.9661 17.07 74.9661 16.542V11.646H73.3101C72.4221 11.646 71.9781 11.226 71.9781 10.386C71.9781 9.558 72.4221 9.144 73.3101 9.144H79.8261C80.7141 9.144 81.1581 9.558 81.1581 10.386C81.1581 11.226 80.7141 11.646 79.8261 11.646H78.1701V16.542C78.1701 17.622 77.6361 18.162 76.5681 18.162ZM86.5761 18.198C85.5921 18.198 84.7341 18.012 84.0021 17.64C83.2701 17.268 82.7001 16.734 82.2921 16.038C81.8841 15.342 81.6801 14.52 81.6801 13.572C81.6801 12.612 81.8841 11.79 82.2921 11.106C82.7001 10.41 83.2701 9.876 84.0021 9.504C84.7341 9.132 85.5921 8.946 86.5761 8.946C87.5601 8.946 88.4181 9.132 89.1501 9.504C89.8821 9.876 90.4461 10.41 90.8421 11.106C91.2501 11.79 91.4541 12.612 91.4541 13.572C91.4541 14.52 91.2501 15.342 90.8421 16.038C90.4461 16.734 89.8821 17.268 89.1501 17.64C88.4181 18.012 87.5601 18.198 86.5761 18.198ZM86.5761 15.84C87.0561 15.84 87.4521 15.66 87.7641 15.3C88.0761 14.94 88.2321 14.364 88.2321 13.572C88.2321 12.768 88.0761 12.192 87.7641 11.844C87.4521 11.484 87.0561 11.304 86.5761 11.304C86.0841 11.304 85.6821 11.484 85.3701 11.844C85.0581 12.192 84.9021 12.768 84.9021 13.572C84.9021 14.364 85.0581 14.94 85.3701 15.3C85.6821 15.66 86.0841 15.84 86.5761 15.84Z" fill="#2F292A"/>
<path d="M31.682 31.162C31.166 31.162 30.77 31.024 30.494 30.748C30.218 30.472 30.08 30.07 30.08 29.542V23.926C30.08 23.35 30.23 22.912 30.53 22.612C30.842 22.3 31.286 22.144 31.862 22.144H37.478C38.054 22.144 38.492 22.3 38.792 22.612C39.104 22.912 39.26 23.35 39.26 23.926V29.542C39.26 30.07 39.122 30.472 38.846 30.748C38.57 31.024 38.174 31.162 37.658 31.162C37.142 31.162 36.746 31.024 36.47 30.748C36.194 30.472 36.056 30.07 36.056 29.542V24.592H33.284V29.542C33.284 30.622 32.75 31.162 31.682 31.162ZM45.9179 31.198C44.9339 31.198 44.0759 31.012 43.3439 30.64C42.6119 30.268 42.0419 29.734 41.6339 29.038C41.2259 28.342 41.0219 27.52 41.0219 26.572C41.0219 25.612 41.2259 24.79 41.6339 24.106C42.0419 23.41 42.6119 22.876 43.3439 22.504C44.0759 22.132 44.9339 21.946 45.9179 21.946C46.9019 21.946 47.7599 22.132 48.4919 22.504C49.2239 22.876 49.7879 23.41 50.1839 24.106C50.5919 24.79 50.7959 25.612 50.7959 26.572C50.7959 27.52 50.5919 28.342 50.1839 29.038C49.7879 29.734 49.2239 30.268 48.4919 30.64C47.7599 31.012 46.9019 31.198 45.9179 31.198ZM45.9179 28.84C46.3979 28.84 46.7939 28.66 47.1059 28.3C47.4179 27.94 47.5739 27.364 47.5739 26.572C47.5739 25.768 47.4179 25.192 47.1059 24.844C46.7939 24.484 46.3979 24.304 45.9179 24.304C45.4259 24.304 45.0239 24.484 44.7119 24.844C44.3999 25.192 44.2439 25.768 44.2439 26.572C44.2439 27.364 44.3999 27.94 44.7119 28.3C45.0239 28.66 45.4259 28.84 45.9179 28.84ZM54.1644 31.162C53.6484 31.162 53.2524 31.024 52.9764 30.748C52.7004 30.472 52.5624 30.07 52.5624 29.542V23.584C52.5624 23.068 52.7004 22.672 52.9764 22.396C53.2524 22.12 53.6484 21.982 54.1644 21.982C55.2324 21.982 55.7664 22.516 55.7664 23.584V25.258H58.5924V23.584C58.5924 22.516 59.1264 21.982 60.1944 21.982C60.7104 21.982 61.1064 22.12 61.3824 22.396C61.6584 22.672 61.7964 23.068 61.7964 23.584V29.542C61.7964 30.07 61.6584 30.472 61.3824 30.748C61.1064 31.024 60.7104 31.162 60.1944 31.162C59.6784 31.162 59.2824 31.024 59.0064 30.748C58.7304 30.472 58.5924 30.07 58.5924 29.542V27.724H55.7664V29.542C55.7664 30.622 55.2324 31.162 54.1644 31.162ZM71.027 31.162C69.983 31.162 69.461 30.592 69.461 29.452V28.246C69.149 28.354 68.849 28.432 68.561 28.48C68.273 28.528 67.991 28.552 67.715 28.552C64.967 28.552 63.593 27.202 63.593 24.502V23.584C63.593 22.516 64.127 21.982 65.195 21.982C65.711 21.982 66.107 22.12 66.383 22.396C66.659 22.672 66.797 23.068 66.797 23.584V24.214C66.797 24.85 66.911 25.306 67.139 25.582C67.379 25.858 67.793 25.996 68.381 25.996C68.573 25.996 68.753 25.978 68.921 25.942C69.101 25.906 69.257 25.852 69.389 25.78V23.674C69.389 22.546 69.923 21.982 70.991 21.982C72.059 21.982 72.593 22.546 72.593 23.674V29.452C72.593 30.592 72.071 31.162 71.027 31.162ZM76.222 31.162C75.238 31.162 74.746 30.598 74.746 29.47V23.494C74.746 23.002 74.872 22.63 75.124 22.378C75.376 22.114 75.736 21.982 76.204 21.982C77.152 21.982 77.626 22.486 77.626 23.494V26.932L80.614 22.99C80.782 22.774 80.998 22.552 81.262 22.324C81.538 22.096 81.922 21.982 82.414 21.982C83.398 21.982 83.89 22.546 83.89 23.674V29.65C83.89 30.13 83.764 30.502 83.512 30.766C83.272 31.03 82.918 31.162 82.45 31.162C81.982 31.162 81.622 31.03 81.37 30.766C81.13 30.502 81.01 30.13 81.01 29.65V26.212L78.022 30.154C77.866 30.37 77.65 30.592 77.374 30.82C77.11 31.048 76.726 31.162 76.222 31.162ZM87.6508 31.162C87.1348 31.162 86.7388 31.024 86.4628 30.748C86.1868 30.472 86.0488 30.07 86.0488 29.542V23.602C86.0488 23.074 86.1868 22.672 86.4628 22.396C86.7388 22.12 87.1348 21.982 87.6508 21.982C88.1668 21.982 88.5628 22.12 88.8388 22.396C89.1148 22.672 89.2528 23.074 89.2528 23.602V25.276H90.1168L91.8808 22.72C92.1088 22.384 92.3668 22.168 92.6548 22.072C92.9548 21.976 93.2428 21.97 93.5188 22.054C93.8068 22.126 94.0468 22.27 94.2388 22.486C94.4308 22.702 94.5388 22.96 94.5628 23.26C94.5868 23.56 94.4848 23.878 94.2568 24.214L92.9608 26.122C93.1888 26.278 93.3928 26.47 93.5728 26.698C93.7648 26.914 93.9328 27.154 94.0768 27.418L94.9408 29.02C95.1208 29.38 95.1748 29.71 95.1028 30.01C95.0428 30.31 94.8928 30.562 94.6528 30.766C94.4248 30.958 94.1548 31.078 93.8428 31.126C93.5308 31.174 93.2248 31.132 92.9248 31C92.6248 30.868 92.3788 30.628 92.1868 30.28L91.2328 28.48C91.0648 28.192 90.8968 27.994 90.7288 27.886C90.5608 27.778 90.3448 27.724 90.0808 27.724H89.2528V29.542C89.2528 30.07 89.1148 30.472 88.8388 30.748C88.5628 31.024 88.1668 31.162 87.6508 31.162ZM98.3001 31.162C97.3161 31.162 96.8241 30.598 96.8241 29.47V23.494C96.8241 23.002 96.9501 22.63 97.2021 22.378C97.4541 22.114 97.8141 21.982 98.2821 21.982C99.2301 21.982 99.7041 22.486 99.7041 23.494V26.932L102.692 22.99C102.86 22.774 103.076 22.552 103.34 22.324C103.616 22.096 104 21.982 104.492 21.982C105.476 21.982 105.968 22.546 105.968 23.674V29.65C105.968 30.13 105.842 30.502 105.59 30.766C105.35 31.03 104.996 31.162 104.528 31.162C104.06 31.162 103.7 31.03 103.448 30.766C103.208 30.502 103.088 30.13 103.088 29.65V26.212L100.1 30.154C99.9441 30.37 99.7281 30.592 99.4521 30.82C99.1881 31.048 98.8041 31.162 98.3001 31.162Z" fill="#2F292A"/>
<path d="M19 18.5C19 23.7467 14.7467 28 9.5 28C4.25329 28 0 23.7467 0 18.5C0 13.2533 4.25329 9 9.5 9C14.7467 9 19 13.2533 19 18.5ZM5.61348 18.5C5.61348 20.6465 7.35353 22.3865 9.5 22.3865C11.6465 22.3865 13.3865 20.6465 13.3865 18.5C13.3865 16.3535 11.6465 14.6135 9.5 14.6135C7.35353 14.6135 5.61348 16.3535 5.61348 18.5Z" fill="#FF4C38"/>
</svg>
