<svg width="25" height="25" viewBox="0 0 25 25" fill="none" xmlns="http://www.w3.org/2000/svg">
<g clip-path="url(#clip0)">
<path d="M23.1701 2.27275H4.54544C4.48935 2.27275 4.43816 2.29384 4.38559 2.30966L3.92781 0.805345C3.78223 0.326953 3.34096 0 2.84089 0H0.5682C0.254404 0 0 0.254404 0 0.5682V1.70455C0 2.01834 0.254404 2.27275 0.5682 2.27275H1.99922L5.54926 13.9388L4.22339 15.4856C3.69935 16.0969 3.46337 16.9393 3.70457 17.7075C4.01304 18.69 4.88017 19.3182 5.87994 19.3182H22.1591C22.4729 19.3182 22.7273 19.0638 22.7273 18.75V17.6136C22.7273 17.2998 22.4729 17.0454 22.1591 17.0454H5.87989L7.68101 14.9441C7.72628 14.8913 7.75958 14.8316 7.79393 14.7727H18.8044C19.6851 14.7727 20.4865 14.2641 20.8615 13.4673L24.8263 5.042C24.9401 4.79952 25 4.53042 25 4.2635V4.10258C25 3.09205 24.1807 2.27275 23.1701 2.27275Z" fill="#FF4C38"/>
<path d="M6.81816 25.0001C8.07336 25.0001 9.09091 23.9825 9.09091 22.7273C9.09091 21.4721 8.07336 20.4546 6.81816 20.4546C5.56295 20.4546 4.54541 21.4721 4.54541 22.7273C4.54541 23.9825 5.56295 25.0001 6.81816 25.0001Z" fill="#FF4C38"/>
<path d="M20.4546 25.0001C21.7098 25.0001 22.7274 23.9825 22.7274 22.7273C22.7274 21.4721 21.7098 20.4546 20.4546 20.4546C19.1994 20.4546 18.1819 21.4721 18.1819 22.7273C18.1819 23.9825 19.1994 25.0001 20.4546 25.0001Z" fill="#FF4C38"/>
</g>
<defs>
<clipPath id="clip0">
<rect width="25" height="25" fill="white"/>
</clipPath>
</defs>
</svg>
