<svg width="37" height="28" viewBox="0 0 37 28" fill="none" xmlns="http://www.w3.org/2000/svg">
<path d="M36.5272 11.2197L28.923 3.71975C28.7805 3.57912 28.2833 3.50002 28.0812 3.50002H23.7916C22.549 3.50002 21.5416 2.49266 21.5416 1.25002C21.5417 0.835461 21.2016 0.5 20.7812 0.5H3.29169C1.6149 0.5 0.25 1.84543 0.25 3.50002V22.25C0.25 23.4908 1.27328 24.5 2.53125 24.5H4.33244C4.96221 26.2423 6.63458 27.5 8.61456 27.5C10.5946 27.5 12.267 26.2423 12.8968 24.5H24.1032C24.7331 26.2423 26.4054 27.5 28.3854 27.5C30.3655 27.5 32.0379 26.2423 32.6677 24.5H33.7084C35.3852 24.5 36.7501 23.1545 36.7501 21.5V11.75C36.75 11.5508 36.6698 11.3603 36.5272 11.2197ZM4.8125 14.75V8.75005C4.8125 8.33548 5.15262 8.00002 5.57294 8.00002H8.61463C9.03495 8.00002 9.37507 8.33548 9.37507 8.75005C9.37507 9.16461 9.03495 9.50007 8.61463 9.50007H6.33338V11H7.85419C8.27451 11 8.61463 11.3355 8.61463 11.7501C8.61463 12.1646 8.27451 12.5001 7.85419 12.5001H6.33331V14.7501C6.33331 15.1647 5.99319 15.5001 5.57287 15.5001C5.15262 15.5 4.8125 15.1646 4.8125 14.75ZM8.61456 26C6.93777 26 5.57287 24.6546 5.57287 23C5.57287 21.3454 6.93777 20 8.61456 20C10.2913 20 11.6562 21.3455 11.6562 23C11.6562 24.6545 10.2913 26 8.61456 26ZM15.4583 13.25V14.75C15.4583 15.1645 15.1182 15.5 14.6979 15.5C14.2775 15.5 13.9374 15.1645 13.9374 14.75V13.25C13.9374 12.8362 13.5958 12.5 13.177 12.5H12.4165V14.75C12.4165 15.1645 12.0764 15.5 11.6561 15.5C11.2358 15.5 10.8957 15.1645 10.8957 14.75V8.74998C10.8957 8.33541 11.2358 7.99995 11.6561 7.99995H13.1769C14.4349 7.99995 15.4582 9.00922 15.4582 10.25C15.4582 10.8257 15.2384 11.3515 14.8759 11.7499C15.2385 12.1485 15.4583 12.6743 15.4583 13.25ZM20.0208 11C20.4411 11 20.7812 11.3354 20.7812 11.75C20.7812 12.1646 20.4411 12.5 20.0208 12.5H18.5V14H20.7812C21.2016 14 21.5417 14.3355 21.5417 14.75C21.5417 15.1646 21.2016 15.5 20.7812 15.5H17.7396C17.3192 15.5 16.9791 15.1646 16.9791 14.75V8.75005C16.9791 8.33548 17.3192 8.00002 17.7396 8.00002H20.7812C21.2016 8.00002 21.5417 8.33548 21.5417 8.75005C21.5417 9.16461 21.2016 9.50007 20.7812 9.50007H18.5V11L20.0208 11ZM23.8229 15.5C23.4026 15.5 23.0625 15.1645 23.0625 14.75V8.74998C23.0625 8.33541 23.4026 7.99995 23.8229 7.99995H26.8646C27.285 7.99995 27.6251 8.33541 27.6251 8.74998C27.6251 9.16454 27.285 9.5 26.8646 9.5H24.5834V11H26.1042C26.5245 11 26.8646 11.3354 26.8646 11.75C26.8646 12.1646 26.5245 12.5 26.1042 12.5H24.5834V14H26.8646C27.285 14 27.6251 14.3355 27.6251 14.75C27.6251 15.1646 27.285 15.5 26.8646 15.5L23.8229 15.5ZM28.3854 26C26.7086 26 25.3437 24.6545 25.3437 23C25.3437 21.3455 26.7086 20 28.3854 20C30.0622 20 31.4271 21.3454 31.4271 23C31.4271 24.6546 30.0622 26 28.3854 26Z" fill="white"/>
</svg>
