<svg width="37" height="36" viewBox="0 0 37 36" fill="none" xmlns="http://www.w3.org/2000/svg">
<path d="M36.1443 15.4554L26.6358 22.2688L30.2681 33.2936C30.4647 33.8905 30.2487 34.544 29.7348 34.9135C29.4765 35.0978 29.1743 35.1899 28.8708 35.1899C28.5677 35.1899 28.2646 35.0978 28.0082 34.9135L18.5002 28.0995L8.99265 34.9125C8.47689 35.2821 7.77996 35.2821 7.26528 34.9125C6.75174 34.544 6.53551 33.8904 6.73232 33.2936L10.3637 22.2683L0.856157 15.4554C0.341387 15.0864 0.125156 14.433 0.321961 13.8359C0.51926 13.2389 1.08383 12.8349 1.71951 12.8349H13.4718L17.1032 1.81099C17.3 1.21405 17.8642 0.810242 18.5008 0.810242C19.1374 0.810242 19.7005 1.21405 19.8971 1.81099L23.5285 12.8349H35.2818C35.9172 12.8349 36.4815 13.239 36.6791 13.8359C36.8741 14.433 36.6577 15.0864 36.1443 15.4554Z" fill="white"/>
</svg>
