<svg width="37" height="36" viewBox="0 0 37 36" fill="none" xmlns="http://www.w3.org/2000/svg">
<path d="M18.5 0C8.43208 0 0.25 8.07 0.25 18C0.25 27.93 8.43208 36 18.5 36C21.9675 36 25.2829 35.04 28.1725 33.225C28.7504 33.435 29.374 33.555 30.0127 33.555C31.4119 33.555 32.7198 33.015 33.6931 32.04C34.6817 31.08 35.2292 29.775 35.2292 28.41C35.2292 27.615 35.0467 26.865 34.7121 26.175C36.0352 23.655 36.75 20.85 36.75 18C36.75 8.07 28.5679 0 18.5 0ZM25.3438 10.5C27.4425 10.5 29.1458 12.18 29.1458 14.25C29.1458 14.865 28.6287 15.375 28.0052 15.375C27.3817 15.375 26.8646 14.865 26.8646 14.25C26.8646 13.425 26.1802 12.75 25.3438 12.75C24.5073 12.75 23.8229 13.425 23.8229 14.25C23.8229 14.865 23.3058 15.375 22.6823 15.375C22.0588 15.375 21.5417 14.865 21.5417 14.25C21.5417 12.18 23.245 10.5 25.3438 10.5ZM11.6562 10.5C13.755 10.5 15.4583 12.18 15.4583 14.25C15.4583 14.865 14.9413 15.375 14.3177 15.375C13.6942 15.375 13.1771 14.865 13.1771 14.25C13.1771 13.425 12.4927 12.75 11.6562 12.75C10.8198 12.75 10.1354 13.425 10.1354 14.25C10.1354 14.865 9.61833 15.375 8.99479 15.375C8.37125 15.375 7.85417 14.865 7.85417 14.25C7.85417 12.18 9.5575 10.5 11.6562 10.5ZM31.5487 26.895C31.9594 27.3 32.1875 27.84 32.1875 28.41C32.1875 28.98 31.9594 29.505 31.5487 29.925C31.1381 30.33 30.5906 30.555 30.0127 30.555C29.4348 30.555 28.8873 30.33 28.4767 29.91L27.2752 28.725C26.4844 29.385 25.6023 29.955 24.6746 30.405C22.7583 31.35 20.614 31.875 18.3479 31.875C12.1429 31.875 6.72875 27.945 4.87333 22.08C4.63 21.285 5.08625 20.445 5.87708 20.205C6.68313 19.95 7.53479 20.4 7.77812 21.195C9.23812 25.785 13.4812 28.875 18.3479 28.875C20.401 28.875 22.3477 28.335 24.0054 27.345C24.1119 27.285 24.2183 27.225 24.3096 27.165C24.3248 27.15 24.34 27.15 24.3552 27.135C26.1042 26.01 27.5185 24.42 28.4006 22.485C28.5983 22.08 28.7656 21.645 28.9025 21.195C29.161 20.4 30.0127 19.95 30.8188 20.205C31.6096 20.445 32.0658 21.285 31.8073 22.08C31.7465 22.29 31.6704 22.485 31.5944 22.68C31.2294 23.7 30.7427 24.66 30.1648 25.53L31.5487 26.895Z" fill="white"/>
</svg>
