<svg width="37" height="36" viewBox="0 0 37 36" fill="none" xmlns="http://www.w3.org/2000/svg">
<path d="M35.4952 19.7842C36.3316 18.8425 36.75 17.7289 36.75 16.4431C36.75 15.2771 36.316 14.2682 35.4509 13.4156C34.584 12.5632 33.5576 12.1372 32.3714 12.1372H26.0527C26.1134 11.9279 26.1743 11.7485 26.235 11.5991C26.2952 11.4496 26.3797 11.285 26.4857 11.1056C26.5918 10.9262 26.6681 10.7915 26.7136 10.702C26.9873 10.194 27.1968 9.77516 27.3414 9.44655C27.4858 9.11731 27.6295 8.66901 27.7745 8.10093C27.9192 7.53317 27.9911 6.96486 27.9911 6.39678C27.9911 6.03817 27.9867 5.74639 27.9795 5.52232C27.9724 5.29809 27.9336 4.96162 27.8658 4.51308C27.7969 4.06478 27.7055 3.69101 27.5917 3.39217C27.4775 3.09325 27.2948 2.75663 27.0443 2.38317C26.7933 2.00901 26.4892 1.70671 26.1315 1.47486C25.7739 1.24317 25.3178 1.04886 24.7627 0.892017C24.2071 0.735016 23.5801 0.656555 22.8801 0.656555C22.4848 0.656555 22.1429 0.798633 21.8536 1.08271C21.5495 1.38163 21.2906 1.75532 21.0779 2.20363C20.8648 2.65217 20.7165 3.04086 20.6327 3.36986C20.5491 3.69871 20.4539 4.15479 20.3479 4.73763C20.2105 5.36579 20.1083 5.81771 20.0395 6.09424C19.9711 6.37078 19.8377 6.73324 19.6402 7.18162C19.4423 7.63032 19.2068 7.98885 18.933 8.25809C18.4312 8.75132 17.6633 9.64832 16.6289 10.9488C15.8835 11.9054 15.1155 12.8098 14.3248 13.6619C13.5338 14.5142 12.956 14.9552 12.5911 14.9851C12.2111 15.0149 11.8841 15.1682 11.6103 15.4449C11.3365 15.7214 11.1996 16.0466 11.1996 16.4202V30.7938C11.1996 31.1825 11.344 31.5149 11.633 31.7915C11.9218 32.0683 12.264 32.214 12.6595 32.229C13.1917 32.244 14.3932 32.5725 16.2639 33.2159C17.4348 33.604 18.3509 33.8997 19.0125 34.1012C19.6739 34.3028 20.5984 34.5197 21.7838 34.7517C22.9702 34.9833 24.065 35.0995 25.0685 35.0995H25.4564H27.1903H28.0114C30.0345 35.0696 31.5319 34.4864 32.5056 33.3505C33.3874 32.3189 33.7598 30.966 33.6234 29.2917C34.2164 28.7386 34.6273 28.0363 34.8551 27.184C35.1133 26.2726 35.1133 25.398 34.8551 24.561C35.5546 23.6491 35.8816 22.6251 35.8357 21.4889C35.8376 21.0101 35.7238 20.4422 35.4952 19.7842Z" fill="white"/>
<path d="M8.28007 15.0079H1.71027C1.3146 15.0079 0.972386 15.15 0.683464 15.4341C0.394541 15.718 0.25 16.0544 0.25 16.4431V30.7948C0.25 31.1829 0.394541 31.5195 0.683544 31.8038C0.972706 32.0874 1.31492 32.2295 1.71035 32.2295H8.28007C8.67542 32.2295 9.01748 32.0874 9.30656 31.8038C9.59548 31.5195 9.73994 31.183 9.73994 30.7948V16.4431C9.73994 16.0544 9.5954 15.7181 9.30656 15.4341C9.01756 15.1499 8.6755 15.0079 8.28007 15.0079ZM5.65651 28.9443C5.36759 29.2208 5.02545 29.3591 4.63002 29.3591C4.21933 29.3591 3.87328 29.2208 3.59211 28.9443C3.31077 28.6678 3.17015 28.3278 3.17015 27.9241C3.17015 27.5355 3.31069 27.199 3.59211 26.9151C3.87336 26.631 4.21933 26.4888 4.63002 26.4888C5.02545 26.4888 5.36759 26.631 5.65651 26.9151C5.94552 27.1989 6.09006 27.5354 6.09006 27.9241C6.09006 28.3278 5.94583 28.6677 5.65651 28.9443Z" fill="white"/>
</svg>
