<svg width="33" height="26" viewBox="0 0 33 26" fill="none" xmlns="http://www.w3.org/2000/svg">
<path d="M20.6092 6.39249H6.45453C6.41191 6.39249 6.373 6.40763 6.33305 6.41898L5.98513 5.3396C5.87449 4.99635 5.53913 4.76175 5.15908 4.76175H3.43183C3.19335 4.76175 3 4.94429 3 5.16944V5.9848C3 6.20995 3.19335 6.39249 3.43183 6.39249H4.51941L7.21744 14.7631L6.20977 15.873C5.8115 16.3116 5.63216 16.916 5.81547 17.4673C6.04991 18.1722 6.70893 18.6229 7.46875 18.6229H19.8409C20.0794 18.6229 20.2728 18.4404 20.2728 18.2152V17.3999C20.2728 17.1747 20.0794 16.9922 19.8409 16.9922H7.46871L8.83756 15.4845C8.87198 15.4466 8.89728 15.4038 8.92339 15.3614H17.2913C17.9606 15.3614 18.5697 14.9965 18.8547 14.4248L21.868 8.37948C21.9545 8.20551 22 8.01242 22 7.8209V7.70543C22 6.98036 21.3773 6.39249 20.6092 6.39249Z" fill="#2F292A"/>
<path d="M8.18176 22.7006C9.13571 22.7006 9.90905 21.9705 9.90905 21.0699C9.90905 20.1692 9.13571 19.4391 8.18176 19.4391C7.2278 19.4391 6.45447 20.1692 6.45447 21.0699C6.45447 21.9705 7.2278 22.7006 8.18176 22.7006Z" fill="#2F292A"/>
<path d="M18.5454 22.7006C19.4994 22.7006 20.2727 21.9705 20.2727 21.0699C20.2727 20.1692 19.4994 19.4391 18.5454 19.4391C17.5914 19.4391 16.8181 20.1692 16.8181 21.0699C16.8181 21.9705 17.5914 22.7006 18.5454 22.7006Z" fill="#2F292A"/>
<rect x="19.5" y="0.5" width="13" height="13" rx="6.5" fill="white"/>
<path d="M26.002 10.09C25.182 10.09 24.5553 9.78 24.122 9.16C23.6953 8.53333 23.482 7.63667 23.482 6.47C23.482 5.28333 23.6953 4.38667 24.122 3.78C24.5553 3.16667 25.182 2.86 26.002 2.86C26.8286 2.86 27.4553 3.16667 27.882 3.78C28.3086 4.38667 28.522 5.28 28.522 6.46C28.522 7.63333 28.3053 8.53333 27.872 9.16C27.4453 9.78 26.822 10.09 26.002 10.09ZM26.002 9.23C26.5086 9.23 26.8853 9.00667 27.132 8.56C27.3786 8.10667 27.502 7.40667 27.502 6.46C27.502 5.50667 27.3786 4.81333 27.132 4.38C26.892 3.94 26.5153 3.72 26.002 3.72C25.4953 3.72 25.1186 3.94 24.872 4.38C24.6253 4.82 24.502 5.51333 24.502 6.46C24.502 7.40667 24.6253 8.10667 24.872 8.56C25.1186 9.00667 25.4953 9.23 26.002 9.23Z" fill="#2F292A"/>
<rect x="19.5" y="0.5" width="13" height="13" rx="6.5" stroke="#2F292A"/>
</svg>
