<svg width="24" height="24" viewBox="0 0 24 24" fill="none" xmlns="http://www.w3.org/2000/svg">
<path fill-rule="evenodd" clip-rule="evenodd" d="M16.9395 3C18.2805 3 19.5705 3.53 20.5195 4.481C21.4695 5.43 22.0005 6.71 22.0005 8.05V15.95C22.0005 18.74 19.7305 21 16.9395 21H7.06049C4.26949 21 2.00049 18.74 2.00049 15.95V8.05C2.00049 5.26 4.25949 3 7.06049 3H16.9395ZM18.5306 9.53994L18.6106 9.45994C18.8496 9.16994 18.8496 8.74994 18.5996 8.45994C18.4606 8.31094 18.2696 8.21994 18.0706 8.19994C17.8606 8.18894 17.6606 8.25994 17.5096 8.39994L13.0006 11.9999C12.4206 12.4809 11.5896 12.4809 11.0006 11.9999L6.50057 8.39994C6.18957 8.16994 5.75957 8.19994 5.50057 8.46994C5.23057 8.73994 5.20057 9.16994 5.42957 9.46994L5.56057 9.59994L10.1106 13.1499C10.6706 13.5899 11.3496 13.8299 12.0606 13.8299C12.7696 13.8299 13.4606 13.5899 14.0196 13.1499L18.5306 9.53994Z" fill="#FF4C38"/>
</svg>
