<svg width="12" height="21" viewBox="0 0 12 21" fill="none" xmlns="http://www.w3.org/2000/svg">
<path d="M11.6095 12.4087C12.0697 11.9366 12.1354 11.2622 11.741 10.5878C11.4123 10.0483 10.8206 9.77856 10.1632 9.91344C9.90024 9.98088 9.63727 10.1158 9.3743 10.3181C7.33632 11.7343 4.57519 11.6668 2.53721 10.2506C2.40572 10.1832 2.27424 10.1158 2.14275 10.0483C1.4196 9.71112 0.696451 9.84601 0.302003 10.5204C-0.158187 11.1948 -0.0924536 11.9366 0.499219 12.5435C0.630702 12.6784 0.762184 12.7459 0.827926 12.8807L0.893671 12.9482C1.81405 13.69 2.93166 14.1621 4.37797 14.3644L3.52333 15.2411C2.80017 15.9829 2.01128 16.7921 1.28812 17.534C1.0909 17.7363 0.827926 18.0735 0.827926 18.5455C0.827926 19.1525 1.15664 19.7594 1.74831 20.0292C1.94554 20.1641 2.14276 20.1641 2.33998 20.1641C2.66869 20.1641 3.06313 20.0292 3.3261 19.692C4.31222 18.6804 5.10112 17.8712 5.89002 17.0619C5.95576 16.9945 5.95575 16.9945 5.95575 16.9945C5.95575 16.9945 6.0215 16.9945 6.0215 17.0619C6.54743 17.6688 7.1391 18.2084 7.66503 18.8153C7.928 19.0851 8.19096 19.3548 8.45393 19.6246C8.78264 19.9618 9.0456 20.0966 9.44005 20.0966C10.0317 20.1641 10.6891 19.7594 10.9521 19.1525C11.2151 18.613 11.0836 17.9386 10.6234 17.534C9.96598 16.8596 9.30857 16.1178 8.58541 15.4434L7.46781 14.2969C8.05948 14.2295 8.7169 14.0946 9.30857 13.8249C10.2947 13.4877 11.0178 13.0156 11.6095 12.4087Z" fill="white"/>
<path d="M5.95575 10.5204C8.78263 10.5204 11.0836 8.22747 11.0836 5.32762C11.0836 3.91142 10.5576 2.56266 9.57153 1.55108C8.58541 0.539509 7.33633 0 6.0215 0C3.19462 0 0.959412 2.36034 0.89367 5.19275C0.89367 6.60895 1.4196 7.89028 2.40572 8.90186C3.3261 9.98087 4.57518 10.5204 5.95575 10.5204ZM4.50945 3.77655C4.90389 3.37192 5.42982 3.1696 5.95575 3.1696C7.1391 3.1696 7.99374 4.11374 7.99374 5.26019C7.99374 6.47408 7.07336 7.35077 5.95575 7.35077C4.77241 7.35077 3.91778 6.40664 3.91778 5.26019C3.91778 4.72068 4.115 4.18118 4.50945 3.77655Z" fill="white"/>
<path d="M11.6095 12.4087C12.0697 11.9366 12.1354 11.2622 11.741 10.5878C11.4123 10.0483 10.8206 9.77856 10.1632 9.91344C9.90024 9.98088 9.63727 10.1158 9.3743 10.3181C7.33632 11.7343 4.57519 11.6668 2.53721 10.2506C2.40572 10.1832 2.27424 10.1158 2.14275 10.0483C1.4196 9.71112 0.696451 9.84601 0.302003 10.5204C-0.158187 11.1948 -0.0924536 11.9366 0.499219 12.5435C0.630702 12.6784 0.762184 12.7459 0.827926 12.8807L0.893671 12.9482C1.81405 13.69 2.93166 14.1621 4.37797 14.3644L3.52333 15.2411C2.80017 15.9829 2.01128 16.7921 1.28812 17.534C1.0909 17.7363 0.827926 18.0735 0.827926 18.5455C0.827926 19.1525 1.15664 19.7594 1.74831 20.0292C1.94554 20.1641 2.14276 20.1641 2.33998 20.1641C2.66869 20.1641 3.06313 20.0292 3.3261 19.692C4.31222 18.6804 5.10112 17.8712 5.89002 17.0619C5.95576 16.9945 5.95575 16.9945 5.95575 16.9945C5.95575 16.9945 6.0215 16.9945 6.0215 17.0619C6.54743 17.6688 7.1391 18.2084 7.66503 18.8153C7.928 19.0851 8.19096 19.3548 8.45393 19.6246C8.78264 19.9618 9.0456 20.0966 9.44005 20.0966C10.0317 20.1641 10.6891 19.7594 10.9521 19.1525C11.2151 18.613 11.0836 17.9386 10.6234 17.534C9.96598 16.8596 9.30857 16.1178 8.58541 15.4434L7.46781 14.2969C8.05948 14.2295 8.7169 14.0946 9.30857 13.8249C10.2947 13.4877 11.0178 13.0156 11.6095 12.4087Z" fill="white"/>
</svg>
