<svg width="21" height="13" viewBox="0 0 21 13" fill="none" xmlns="http://www.w3.org/2000/svg">
<path d="M20.6728 10.8C20.6728 10.7175 20.5897 10.7175 20.5897 10.6351C20.2576 9.97556 19.5104 9.15113 18.5142 8.24427C18.016 7.83205 17.7669 7.50228 17.6009 7.33739C17.3518 7.00762 17.3518 6.7603 17.4349 6.43053C17.5179 6.1832 17.85 5.77098 18.4311 5.02899C18.7632 4.61678 18.9293 4.36946 19.1783 4.12213C20.4237 2.47328 21.0048 1.40152 20.8388 0.906862L20.7558 0.824427C20.6728 0.741984 20.5897 0.659544 20.4237 0.659544C20.2576 0.577101 20.0086 0.577101 19.7595 0.659544H16.6046C16.5216 0.659544 16.5216 0.659544 16.3555 0.659544C16.2725 0.659544 16.1895 0.659544 16.1895 0.659544H16.1065H16.0235L15.9404 0.741979C15.8574 0.824422 15.8574 0.824419 15.8574 0.906862C15.5253 1.81373 15.1102 2.55571 14.6951 3.38014C14.446 3.79235 14.197 4.20458 13.9479 4.53435C13.6988 4.86412 13.5328 5.11144 13.3667 5.27633C13.2007 5.44121 13.0346 5.52365 12.9516 5.68854C12.8686 5.77098 12.7025 5.85343 12.7025 5.77099C12.6195 5.77099 12.5365 5.77098 12.5365 5.68854C12.4535 5.6061 12.3704 5.52365 12.2874 5.44121C12.2044 5.35877 12.2044 5.19388 12.1214 5.02899C12.1214 4.86411 12.1214 4.69922 12.1214 4.61678C12.1214 4.53434 12.1214 4.28702 12.1214 4.12213C12.1214 3.8748 12.1214 3.70991 12.1214 3.62747C12.1214 3.38014 12.1214 3.05038 12.1214 2.72061C12.1214 2.39084 12.1214 2.1435 12.1214 1.97862C12.1214 1.81373 12.1214 1.56641 12.1214 1.40152C12.1214 1.15419 12.1214 0.989304 12.1214 0.906862C12.1214 0.824419 12.0384 0.659539 12.0384 0.577096C11.9553 0.494653 11.8723 0.412208 11.7893 0.329766C11.7063 0.247323 11.5402 0.247325 11.4572 0.164883C11.0421 0.0824401 10.5439 0 9.96278 0C8.63441 0 7.72115 0.0824452 7.38906 0.24733C7.22302 0.329773 7.05697 0.412211 6.97395 0.577096C6.8079 0.741981 6.8079 0.824427 6.89092 0.824427C7.30603 0.906869 7.63813 1.07175 7.80418 1.31907L7.88721 1.48397C7.97023 1.56641 7.97021 1.73129 8.05324 1.97862C8.13626 2.22595 8.13626 2.47327 8.13626 2.80305C8.13626 3.2977 8.13626 3.79236 8.13626 4.12213C8.13626 4.53435 8.05324 4.78167 8.05324 5.02899C8.05324 5.27632 7.97023 5.44121 7.88721 5.52366C7.80418 5.68854 7.80417 5.77099 7.72115 5.77099C7.72115 5.77099 7.72114 5.85342 7.63812 5.85342C7.5551 5.85342 7.47208 5.93587 7.30603 5.93587C7.22301 5.93587 7.05697 5.85343 6.97395 5.77099C6.8079 5.68854 6.64185 5.52366 6.55883 5.35877C6.39279 5.19389 6.22673 4.94655 6.06069 4.61678C5.89464 4.28701 5.64556 3.95725 5.47952 3.46259L5.31349 3.13282C5.23046 2.96794 5.06442 2.63816 4.89837 2.22595C4.73232 1.81374 4.56627 1.48397 4.40023 1.07176C4.3172 0.906872 4.23419 0.824422 4.15117 0.741979H4.06814C4.06814 0.741979 3.98511 0.659544 3.90208 0.659544C3.81906 0.659544 3.73605 0.577096 3.65302 0.577096H0.664187C0.332095 0.577096 0.166051 0.659536 0.0830282 0.741979L0 0.824427C0 0.824427 0 0.906867 0 0.989309C0 1.07175 5.06639e-06 1.15419 0.0830282 1.31907C0.498144 2.30839 0.99628 3.2977 1.49442 4.28702C1.99256 5.19389 2.4907 6.01831 2.82279 6.59541C3.23791 7.17251 3.57 7.74961 3.98511 8.24427C4.40023 8.73892 4.64929 9.06869 4.73231 9.23357C4.89836 9.39846 4.98138 9.4809 5.0644 9.56334L5.31349 9.81067C5.47953 9.97556 5.7286 10.2229 6.06069 10.4702C6.39278 10.7175 6.80789 10.9649 7.22301 11.2122C7.63812 11.4595 8.13627 11.6244 8.63441 11.7893C9.21557 11.9542 9.7137 12.0366 10.2118 11.9542H11.4572C11.7063 11.9542 11.8723 11.8717 12.0384 11.7069L12.1214 11.6244C12.1214 11.542 12.2044 11.542 12.2044 11.4595C12.2044 11.3771 12.2044 11.2946 12.2044 11.1298C12.2044 10.8 12.2044 10.5527 12.2874 10.3053C12.3704 10.058 12.3705 9.89312 12.4535 9.72824C12.5365 9.56335 12.6195 9.4809 12.7025 9.39846C12.7856 9.31602 12.8686 9.23357 12.8686 9.23357H12.9516C13.1176 9.15113 13.3667 9.23357 13.5328 9.39846C13.7818 9.56334 14.0309 9.81067 14.1969 10.058C14.363 10.3053 14.6121 10.5527 14.9442 10.8824C15.2763 11.2122 15.5253 11.4595 15.6914 11.542L15.9404 11.7069C16.1065 11.7893 16.2725 11.8717 16.5216 11.9542C16.7707 12.0366 16.9367 12.0366 17.1027 12.0366L19.9256 11.9542C20.1746 11.9542 20.4237 11.8717 20.5897 11.7893C20.7558 11.7069 20.8388 11.6244 20.8388 11.4595C20.8388 11.3771 20.8388 11.2122 20.8388 11.1298C20.6727 10.9649 20.6728 10.8824 20.6728 10.8Z" fill="white"/>
</svg>
