<svg width="18" height="13" viewBox="0 0 18 13" fill="none" xmlns="http://www.w3.org/2000/svg">
<path d="M17.7131 4.87856C17.7131 4.49341 17.6485 4.04408 17.6485 3.53054C17.5839 3.01701 17.5192 2.50347 17.4546 2.05413C17.3253 1.5406 17.1313 1.15545 16.7434 0.834494C16.4202 0.513536 15.9677 0.320955 15.5152 0.256763C14.0283 0.0641878 11.8303 0 8.85658 0C5.88284 0 3.6202 0.0641878 2.19798 0.256763C1.74545 0.320955 1.29293 0.513536 0.969697 0.834494C0.646465 1.15545 0.387875 1.5406 0.258582 2.05413C0.129289 2.50347 0.0646504 2.95282 0.0646504 3.53054C3.94475e-06 4.04408 0 4.49341 0 4.87856C0 5.26371 0 5.71306 0 6.35498C0 6.99689 0 7.51043 0 7.83139C0 8.21654 0.0646504 8.66588 0.0646504 9.17942C0.129297 9.69295 0.193936 10.2065 0.258582 10.6558C0.387875 11.1694 0.581818 11.5545 0.969697 11.8755C1.29293 12.1964 1.74545 12.389 2.19798 12.4532C3.68485 12.6458 5.88284 12.71 8.85658 12.71C11.8303 12.71 14.0929 12.6458 15.5152 12.4532C15.9677 12.389 16.4202 12.1964 16.7434 11.8755C17.0667 11.5545 17.3253 11.1694 17.4546 10.6558C17.5838 10.2065 17.6485 9.75714 17.6485 9.17942C17.7132 8.66588 17.7131 8.21654 17.7131 7.83139C17.7131 7.44624 17.7131 6.99689 17.7131 6.35498C17.7131 5.71306 17.7131 5.19952 17.7131 4.87856ZM12.2828 6.86851L7.17577 10.0139C7.11112 10.0781 6.98183 10.1423 6.85253 10.1423C6.72324 10.1423 6.65859 10.1423 6.5293 10.0781C6.33536 9.94971 6.20607 9.75714 6.20607 9.50037V3.14539C6.20607 2.88862 6.33536 2.69605 6.5293 2.56767C6.72324 2.43929 6.98183 2.43929 7.17577 2.56767L12.2828 5.71306C12.4768 5.84144 12.6061 6.03402 12.6061 6.22659C12.6061 6.41917 12.4768 6.74013 12.2828 6.86851Z" fill="white"/>
</svg>
